<svg xmlns="http://www.w3.org/2000/svg" xmlns:xlink="http://www.w3.org/1999/xlink" width="64" height="366"><svg width="58" height="58" viewBox="-5 -5 58 58"><title>icon/全局/平台特色/30天无忧退货</title><g fill="none" fill-rule="evenodd"><circle stroke="#999" stroke-width="2" cx="24" cy="24" r="23"/><path d="M20.4 15.72c1.28 1.06 1.92 2.5 1.92 4.32 0 2.36-1.18 3.93-3.54 4.71 1.24.38 2.2.97 2.88 1.77.72.8 1.08 1.84 1.08 3.12 0 1.98-.68 3.6-2.04 4.86-1.46 1.28-3.33 1.92-5.61 1.92-2.18 0-3.94-.56-5.28-1.68-1.5-1.26-2.34-3.09-2.52-5.49h3.3c.06 1.46.53 2.57 1.41 3.33.78.72 1.8 1.08 3.06 1.08 1.36 0 2.47-.4 3.33-1.2.74-.74 1.11-1.63 1.11-2.67 0-1.26-.39-2.19-1.17-2.79-.72-.6-1.79-.9-3.21-.9h-1.56v-2.46h1.53c1.3 0 2.29-.29 2.97-.87.68-.58 1.02-1.41 1.02-2.49 0-1.06-.31-1.88-.93-2.46-.64-.58-1.61-.87-2.91-.87s-2.31.33-3.03.99c-.74.68-1.17 1.67-1.29 2.97H7.71c.18-2.12.97-3.78 2.37-4.98 1.3-1.18 3.01-1.77 5.13-1.77 2.16 0 3.89.52 5.19 1.56zm18.45 1.62c1.26 1.98 1.89 4.63 1.89 7.95 0 3.32-.63 5.97-1.89 7.95-1.4 2.12-3.35 3.18-5.85 3.18-2.5 0-4.45-1.06-5.85-3.18-1.26-1.98-1.89-4.63-1.89-7.95 0-3.36.63-6.01 1.89-7.95 1.38-2.12 3.33-3.18 5.85-3.18 2.52 0 4.47 1.06 5.85 3.18zm-9.57 2.49c-.52 1.28-.78 3.1-.78 5.46 0 2.34.26 4.16.78 5.46.72 1.94 1.96 2.91 3.72 2.91 1.76 0 3-.97 3.72-2.91.52-1.38.78-3.2.78-5.46 0-2.3-.26-4.12-.78-5.46-.72-1.94-1.96-2.91-3.72-2.91-1.76 0-3 .97-3.72 2.91z" fill="#999"/></g></svg><svg width="58" height="58" viewBox="-5 -5 58 58" y="58"><title>icon/全局/平台特色/88免邮</title><g fill="none" fill-rule="evenodd"><path d="M37 34h3.007a.996.996 0 0 0 .993-.999V14a.99.99 0 0 0-.993-.999H23.993A.996.996 0 0 0 23 14v19c0 .56.445.999.993.999H27a5 5 0 0 1 10 0z" fill="#999"/><circle fill="#999" cx="32" cy="34" r="4"/><path d="M12.013 16h8.986c.553 0 1.001.455 1.001 1v15c0 .552-.445 1-1 1h-2.1a5.002 5.002 0 0 0-9.8 0H7c-.552 0-1-.455-1-1v-8.834L12.013 16zm1 3L9 23.783V26h9v-7h-4.987z" fill="#999"/><circle fill="#999" cx="14" cy="34" r="4"/><circle stroke="#999" stroke-width="2" cx="24" cy="24" r="23"/></g></svg><svg width="58" height="58" viewBox="-5 -5 58 58" y="116"><title>icon/全局/平台特色/网易品质保证</title><g fill="none" fill-rule="evenodd"><path d="M20.32 33.358l-.18.122-.216.12-.264.143-.314.145-.36.143-.408.165-.467.176-.492.177-.216.034-.204.032-.192.043-.167.067-.17.054-.154.044-.121.067-.132.078-.18.087-.216.1-.251.078-.277.098-.312.066-.36.078-.384.054-.407.057-.24.022-.252.043-.23.043-.202.078-.205.088-.192.11-.191.122-.182.165-.167.166-.12.153-.132.167-.072.165-.072.142-.036.155-.011.087v.056l.011.088v.078l.085.197.059.188.108.176.096.166.133.143.131.144.337.242.143.053.155.068.193.044.192.033.203.02.23.012.239-.012.252-.02.204-.012.204-.031.217-.069.203-.064.23-.067.214-.11.228-.1.216-.143.192-.12.18-.09.168-.097.132-.067.144-.056.12-.032.108-.022h.084l.18-.012.193-.044.215-.065.252-.077.263-.11.325-.111.349-.143.37-.165.53-.222.468-.208.191-.1.157-.087.156-.101.131-.087.156-.133.132-.131.156-.1.144-.11.145-.089.12-.077.131-.065.143-.065.23-.09.204-.078.19-.087.169-.098.168-.079.12-.099.12-.065.108-.1.108-.1.085-.12.12-.087.094-.111.122-.078.119-.111.12-.075.132-.079.036-.033.049-.009.01-.012.049-.01.049-.012h.07l.23-.012.204-.02.167-.033.156-.012.157-.011h.335l.132.01.037-.043.048-.133.035-.188.071-.253.025-.208.061-.199.047-.177.084-.187.18-.077.181-.098.204-.11.192-.145.203-.13.193-.156.215-.177.204-.186.11-.133.094-.121.12-.121.12-.11.12-.11.132-.078.156-.075.133-.09.36-.253.395-.297.397-.32.42-.31.096-.12.072-.1.108-.099.071-.087.108-.078.096-.077.097-.076.107-.067.192-.111.169-.131.155-.121.133-.144.108-.155.095-.154.073-.164.036-.166v-.176l-.012-.078-.012-.088-.024-.055-.036-.077-.049-.078-.048-.043-.048-.056-.06-.065-.083-.044-.073-.034-.083-.044-.084-.045-.097-.032-.108-.021-.144-.034h-.155l-.145.011-.156.034-.18.066-.168.065-.18.088-.18.123-.24.186-.227.177-.252.177-.253.174-.24.166-.252.166-.275.165-.253.143-.095.065-.12.058-.083.087-.098.078-.084.087-.084.088-.07.089-.062.111-.275.141-.337.21-.395.264-.468.308-.325.199-.275.177-.29.175-.274.156-.265.153-.24.155-.251.131-.216.111-.253.154-.312.177-.324.2-.371.251-.133.088-.095.11-.132.078-.133.1-.119.076-.133.078-.143.066-.132.065-.145.067-.143.066-.144.09-.109.064-.133.088-.095.09-.12.086-.084.11zm11.748 4.871l.119-.012.12-.031.132-.045.145-.057.324-.13.372-.198.42-.211.456-.253.516-.307.539-.342.301-.177.251-.176.24-.164.24-.168.204-.175.181-.154.155-.177.168-.177.108-.22.12-.176.06-.066.06-.054.072-.067.073-.046.036-.01.048-.021.047-.012.073-.032.119-.1.145-.099.179-.164.192-.177.205-.232.216-.242.168-.242.156-.243.108-.22.108-.22.071-.187.06-.187.036-.167.013-.165v-.208l.012-.2.023-.163.037-.156.108-.287.096-.264.048-.23.047-.198.013-.19v-.152l-.013-.09-.024-.043-.035-.056-.012-.067-.036-.12-.012-.132-.013-.143v-.1l.013-.132.036-.1.024-.11.059-.098.037-.078.024-.075v-.068l.011-.087-.011-.065-.024-.069-.037-.087-.047-.055-.048-.09-.06-.086-.049-.09-.059-.088-.023-.086-.037-.1-.048-.199v-.133l-.013-.143-.023-.12-.036-.122-.049-.131-.048-.1-.072-.122-.108-.109-.156-.309-.131-.275-.144-.243-.12-.21-.012-.13-.036-.123-.037-.11-.059-.1-.048-.108-.072-.08-.109-.097-.084-.056-.431-.33-.396-.3-.18-.163-.156-.144-.157-.142-.143-.155-.06-.099-.097-.11-.107-.1-.109-.097-.143-.088-.168-.1-.169-.077-.192-.089-.215-.077-.228-.098-.216-.089-.216-.108-.205-.123-.215-.11-.229-.121-.203-.143-.11-.068-.13-.055-.097-.064-.12-.034-.095-.023-.109-.01h-.107l-.097.01h-.275l-.144-.01-.132-.01-.145-.022-.107-.046-.132-.033-.096-.054-.229-.012-.215.012-.18.022-.168.044-.12.045-.144.01h-.133l-.155-.01-.181-.034-.18-.033-.191-.044-.217-.055-.396-.078-.396-.044-.371-.043-.36-.024h-.373l-.191.012-.18.021-.193.034-.204.044-.192.056-.216.043-.192.088-.156.101-.084.043-.06.066-.06.067-.071.054-.048.068-.037.076-.036.064-.048.09-.025.077-.022.076-.012.09v.275l.023.176.049.144.059.131.06.133.109.099.095.1.133.065.036.043-.373.254-.372.243-.383.242-.42.21-.18.11-.168.144-.17.141-.155.156-.227.144-.278.186-.37.231-.432.288-.277.143-.276.165-.263.143-.264.144-.24.142-.228.122-.217.121-.216.132-.251.111-.301.142-.3.2-.348.207-.193.167-.216.156-.227.13-.263.144-.133.044-.155.055-.12.076-.122.069-.119.052-.108.089-.083.079-.11.087-.143.11-.204.122-.252.121-.288.131-.324.132-.384.133-.407.154-.458.143-.384.078-.335.065-.131.056-.132.043-.121.056-.097.032-.166.102-.193.074-.228.067-.252.066-.313.057-.311.054-.372.045-.372.032-.229.02-.203.034-.204.057-.204.055-.192.076-.18.099-.156.133-.156.12-.168.156-.132.153-.108.143-.084.144-.06.132-.024.132-.012.078v.11l.012.078.048.175.06.177.084.152.096.156.107.143.133.12.132.111.168.11.132.068.132.075.168.046.18.022.18.021.204.021h.217l.25-.01.181-.023.192-.021.217-.044.203-.065.192-.068.192-.075.18-.112.216-.12.169-.1.155-.088.145-.076.143-.056.108-.044.12-.033.084-.012h.096l.132-.01.18-.022.204-.056.24-.066.252-.077.276-.11.324-.11.325-.144.491-.198.42-.187.349-.166.288-.143.131-.131.133-.111.132-.1.119-.1.144-.086.109-.056.131-.077.108-.045.18-.054.193-.078.18-.066.155-.065.131-.09.146-.085.095-.09.12-.099.084-.1.109-.087.095-.088.108-.088.108-.077.108-.056.12-.076.12-.057.157-.064.156-.1.132-.088.144-.11.287-.22.288-.243.191-.165.182-.144.191-.12.193-.09.3-.177.347-.23.373-.265.395-.318.097-.1.107-.121.097-.1.119-.088.109-.088.12-.089.119-.065.144-.078.336-.23.36-.266.385-.252.371-.299.144-.164.145-.155.18-.143.19-.12.17-.122.168-.1.132-.122.12-.098.107-.133.084-.121.072-.111.06-.143h.073l.095.022.108.012h.264l.12-.012.168-.022.156-.032.168-.021.109-.046.12-.022.156-.01h.155l.169.01.192.022.215.024.24.043h.121l.12.022.108.01.095.034.025.055.047.078.06.087.061.1.132.264.107.297.132.32.109.342.048.143.035.133.048.133.048.075.036.09.06.053.049.046.06.01.12-.01.144-.022.156-.034.18-.032.18-.024.203-.021.253-.056.263-.032.145-.022.18-.011.216-.022.24-.012.072.024.096.02.084.032.084.045.252.232.228.232.216.23.192.254.18.255.155.24.12.276.12.276.037.078.023.086.048.101.025.11.035.221.013.242v.276l-.036.296-.037.332-.07.35-.121.343-.12.32-.133.275-.131.264-.145.244-.155.208-.157.199-.155.166-.145.131-.143.177-.168.188-.156.208-.228.266-.229.22-.215.208-.217.199-.215.154-.205.143-.203.111-.204.088-.084.012-.084.022-.06.031-.073.034-.059.044-.048.044-.073.067-.048.077-.06.044-.083.056-.084.04-.109.07-.216.088-.251.109-.325.088-.336.1-.384.066-.443.099-.324.078-.312.053-.301.045-.274.024-.254.01-.228-.01-.204-.024-.192-.045-.132-.011-.143-.031-.109-.034-.144-.055-.228-.165-.215-.166-.217-.131-.192-.099-.204-.1-.192-.067-.18-.032-.168-.033h-.18l-.06.021-.096.022-.072.01-.06.024-.072.032-.072.045-.06.066-.084.065-.048.089-.047.088-.05.111-.01.109v.275l.01.144.037.134.037.13.048.144.06.145.072.12.083.143.109.132.095.111.097.132.047.131.049.134.012.087.023.1.049.066.047.076.036.089.06.067.085.086.071.056.157.186.133.178.106.185.072.19.084.088.072.067.109.064.107.067.144.044.157.045.168.053.192.023.203.033.229.044.264.077.311.089.12.02.145.012.168-.012.167-.02.18-.043.205-.046.204-.077.228-.077.456-.154.432-.142.407-.112.349-.088zM20.836 9.965l-.169.077-.155.066-.168.045-.18.065-.157.046-.168.043-.168.022-.156.032-.169.024-.155.01-.168.012H18.7l-.158-.012-.166-.01-.156-.024-.145-.054-.108-.033-.12-.045-.096-.043-.108-.067-.072-.042-.096-.057-.072-.076-.047-.056-.073-.067-.048-.087-.036-.066-.024-.09-.012-.086-.012-.088-.024-.1V9.13l.036-.178.024-.164.06-.155.096-.155.084-.109.132-.133.132-.109.18-.12.204-.134.204-.089.216-.088.228-.075.24-.034.24-.034.24-.022.337-.022.348-.033.324-.066.359-.043.228-.102.263-.065.265-.045.276-.052.289-.045.275-.034.3-.01.3-.013h1.069l.312.012.3.011.264.022.263.033.24.045.288.055.3.045.289.031.312.034.3.011h.311l.326-.011.298-.046.24-.02.253-.023.227-.01.228-.01h.229l.216.01.215.022.216.022.24.021.204.055.204.035.205.043.204.054.192.077.192.068.192.087.095.056.108.043.12.032.121.046.156.022.142.011h.338l.203.01.192.044.204.068.192.053.204.1.205.1.203.142.216.145.229.12.167.132.168.12.132.122.121.112.083.12.025.044.011.056.013.055.012.053.011.1.025.11.048.089.048.099.048.077.072.1.072.076.084.088.059.066.06.066.049.079.047.077.085.186.06.221.047.232.049.24.011.3v.308l.049.298.072.286.108.254.095.242.085.12.048.134.049.153.035.188.048.175.023.21.012.21V16.6l-.012.352-.047.319-.037.167-.035.153-.036.121-.036.144-.048.131-.061.112-.06.133-.06.11-.07.098-.085.099-.06.09-.097.087-.072.099-.084.097-.083.09-.097.1-.204.176-.215.152-.228.155-.264.155-.289.111-.299.12-.109.055-.119.055-.133.069-.13.031-.123.032-.142.034-.145.043-.144.023-.3.033-.336.011-.323-.011-.36-.023-.24-.01-.24-.01h-.229l-.228.01-.216.01-.192.023-.192.022-.192.024-.191.052-.205.057-.192.032-.204.023h-.191l-.18-.012-.18-.033-.18-.044-.18-.075-.168-.035-.168-.034-.169-.01h-.18l-.18.01-.168.034-.179.035-.205.087-.191.065-.217.034-.191.01h-.18l-.193-.01-.18-.045-.18-.066-.13-.056-.133-.043-.145-.01-.132-.012h-.287l-.145.022-.156.024-.095.307-.132.286-.133.308-.155.287-.085.11-.107.133-.12.12-.109.1-.143.134-.132.12-.156.11-.158.109-.166.145-.157.12-.156.155-.12.165-.083.143-.073.11-.06.099-.095.089-.084.077-.108.066-.11.044-.107.043-.12.046-.132.055-.12.054-.108.056-.108.077-.107.078-.109.065-.083.099-.168.143-.169.131-.18.145-.168.11-.192.098-.192.09-.204.076-.203.077-.3.132-.325.156-.312.153-.288.188-.156.088-.144.077-.155.056-.193.065-.229.056-.215.033-.24.02-.24.022h-.216l-.228.034-.205.045-.192.044-.191.077-.192.066-.18.077-.18.1-.167.077-.169.065-.144.056-.144.032-.131.023-.133.02-.095.012-.108-.011h-.397l-.169.045-.132.032-.227.068-.24.065-.228.033-.216.01h-.228l-.24-.01-.228-.055-.24-.043-.18-.045-.133-.055-.143-.066-.096-.055-.096-.045-.06-.066-.072-.11-.024-.132-.036-.077-.037-.056-.023-.022-.024-.022-.024-.01-.048-.033-.036-.034-.036-.044-.024-.055-.036-.131-.012-.167-.012-.12v-.132l.012-.143.025-.111.047-.131.048-.112.083-.109.086-.111.094-.078.085-.065.12-.066.108-.077.144-.056.144-.065.144-.066.168-.055.179-.024.18-.032.17-.012.19-.01h.18l.181.01.156.012.192.032.252.036.288.032.324.033.336.01.169-.032.18-.035.167-.032.155-.034.181-.055.156-.064.144-.055.156-.09.144-.097.143-.09.158-.067.155-.065.156-.056.168-.033.18-.033.18-.01.169-.033.155-.055.18-.033.156-.067.156-.087.169-.078.13-.1.145-.098.143-.1.122-.077.143-.087.144-.056.133-.054.143-.046.144-.043.155-.034.205-.087.216-.121.193-.111.18-.122.167-.131.144-.142.168-.145.144-.142.12-.2.108-.164.12-.167.097-.141-.23-.066-.226-.023-.217-.022h-.228l-.216.01-.216.035-.215.066-.204.076-.145.033-.179.032-.192.012-.204-.012-.252-.032-.253-.033-.276-.066-.3-.088-.313-.065-.287-.089-.24-.1-.216-.12-.084-.056-.084-.045-.072-.064-.084-.067-.06-.042-.048-.079-.047-.066-.037-.056-.035-.153-.06-.133-.085-.143-.073-.11-.131-.12-.12-.135-.144-.11-.18-.12-.048-.032-.084-.046-.048-.066-.047-.055-.038-.056-.059-.087-.036-.077-.025-.078-.023-.099-.023-.088-.014-.1-.01-.109V17.8l.01-.264-.01-.398-.013-.385-.012-.363-.012-.353-.036-.32-.036-.297-.023-.286-.036-.289-.05-.143-.035-.164-.011-.155-.013-.153v-.167l.013-.165.011-.152.048-.145.024-.22.013-.21.012-.219-.012-.22v-.466l.023-.217.036-.21.048-.21.06-.21.071-.186.098-.189.06-.109.07-.133.085-.11.073-.099.072-.087.095-.077.084-.079.096-.066.072-.055.096-.054.085-.056.096-.022.083-.032.108-.023.072-.022.096-.01.228.043.204.044.168.044.18.077.084.066.084.089.06.088.072.089.06.11.047.11.049.12.036.122.06.165.048.186.048.222v.254l.012.263v.297l-.012.31-.048.32-.048.419-.047.383-.037.353-.023.32v.596l.01.242.037.242.06.266.072.242.06.242.072.2.084.186.073.166.082.142.097.122.121.177.131.153.156.153.167.132.182.1.192.112.203.087.228.065.192.044.169.034.179.033.18.023.168.01.192.022h.576l.193-.032h.19l.217-.032.205-.034.191-.034.205-.065.228-.034.264-.078.275-.055.264-.066.265-.031.263-.045.275-.024.266-.031.275-.012.253-.01.264.01.275.012.253.02.264.035.263.033.252.033.253.055.336.067.3.043.3.022h.3l.288-.022.275-.034.265-.076.263-.066.253-.055.275-.067.264-.043.276-.035.289-.02.3-.011.312-.012.3.012.144.01.131.01h.133l.12-.01h.12l.107-.022.108-.021.11-.044.107-.035.094-.042.109-.033.073-.067.108-.056.071-.065.084-.078.084-.077.12-.1.108-.109.109-.133.108-.152.096-.179.095-.187.108-.208.073-.22.024-.254.01-.254v-.23l-.01-.243-.024-.22-.048-.21-.05-.21-.083-.186-.072-.177-.048-.166-.035-.175-.049-.155-.035-.155-.012-.142-.012-.165-.013-.121-.023-.2-.036-.208-.048-.198-.073-.21-.191-.23-.157-.2-.048-.1-.035-.065-.036-.067-.012-.077-.048-.087-.049-.1-.036-.065-.047-.09-.06-.065-.06-.044-.048-.055-.073-.034-.18-.077-.18-.089-.168-.086-.143-.101-.06-.055-.085-.054-.084-.056-.13-.042-.133-.045-.157-.045-.18-.043-.215-.045-.469-.055-.54-.066-.635-.055-.709-.033h-1.932l-.42-.022-.396-.011-.383-.044-.36-.035-.24-.03-.228-.034-.24-.022-.217-.013h-.444l-.228.013-.216.01-.216.034-.205.033-.214.044-.204.065-.23.045-.203.088-.204.077-.203.077zm.264 2.767l-.193-.067-.192-.024-.18-.009-.18.01-.059.023-.097.033-.06.022-.084.033-.071.033-.06.033-.072.044-.061.065-.12.11-.096.134-.096.12-.072.144-.06.133-.06.141-.036.157-.024.153v.155l.012.154.048.153.073.144.071.133.108.132.121.11.131.133.096.031.12.033.12.034.097.035.12.01.108.021h.503l.264-.031.277-.069.275-.064.396-.078.36-.077.336-.033.325-.023h.587l.264.023.253.044.107.033.12.045.132.032.109.022.131.012.109.01h.263l.252-.01.265-.034.275-.056.253-.098.227-.033.228-.043.252-.025.252-.01.264.01.277.046.275.032.289.067.143.054.156.033.156.023.168.01.157-.02.155-.022.169-.056.167-.066.12-.055.109-.089.084-.088.095-.133.084-.12.048-.156.048-.152.048-.165-.023-.189-.037-.175-.047-.166-.084-.165-.108-.154-.108-.134-.157-.142-.143-.1-.168-.087-.192-.056-.192-.031-.217-.024-.216-.01-.215.022-.253.033-.24.031-.203.057-.228.034-.216.01h-.24l-.253-.01-.24-.034-.252-.057-.275-.052-.348-.056-.348-.044-.348-.021h-.35l-.347.01-.36.042-.348.045-.36.055-.3.078-.3.065-.288.034-.263.022h-.252l-.24-.012-.218-.033-.202-.042z" fill="#999"/><circle stroke="#999" stroke-width="2" cx="24" cy="24" r="23"/></g></svg><svg width="64" height="64" viewBox="-5 -5 64 64" y="174"><title>icon/全局/分享/微博</title><g fill="#FFF" fill-rule="evenodd"><circle opacity=".2" cx="27" cy="27" r="27"/><path d="M44.464 25.293h-.008c-.145 1-.641 1.08-1.233 1.08-.707 0-1.278-.444-1.278-1.152 0-.614.254-1.237.254-1.237.075-.257.673-1.862-.395-4.259-1.956-3.286-5.894-3.333-6.36-3.146-.469.184-1.161.276-1.161.276A1.284 1.284 0 0 1 33 15.572c0-.59.395-1.09.935-1.244 0 0 .012-.019.031-.023.039-.008.079-.047.121-.05.548-.107 2.503-.49 4.405-.045 3.402.794 8.072 4.083 5.972 11.083"/><path d="M34.88 19.834a.878.878 0 0 1-.88-.878.88.88 0 0 1 .88-.89s5.499-1.016 4.842 4.893a.35.35 0 0 1-.012.094.882.882 0 0 1-1.752-.14s.872-3.95-3.078-3.08m5.396 13.871c-2.206 4.685-9.48 6.966-14.87 6.544-5.123-.404-11.71-2.106-12.39-8.305 0 0-.36-2.808 2.362-6.44 0 0 3.915-5.468 8.475-7.029 4.565-1.553 5.096 1.075 5.096 2.628-.242 1.318-.696 2.093 1.017 1.561 0 0 4.487-2.08 6.333-.236 1.49 1.491.246 3.541.246 3.541s-.618.684.653.93c1.276.255 5.284 2.112 3.078 6.806zm-14.6-7.685c-5.35.247-9.676 3.113-9.676 6.688 0 3.571 4.326 6.254 9.677 6.004 5.354-.244 9.688-3.596 9.688-7.166 0-3.566-4.334-5.773-9.688-5.526zm3.646 8.992c-1.64 2.115-4.881 3.147-8.03 1.442-1.498-.812-1.443-2.409-1.443-2.409s-.622-5.041 4.76-5.671c5.39-.625 6.352 4.522 4.713 6.638zm-3.61-3.376c-.344.25-.415.727-.227 1.025.18.305.599.34.939.086.332-.262.46-.72.28-1.025-.178-.297-.593-.383-.992-.086zm-2.55.693c-1.005.105-1.725.98-1.725 1.818 0 .84.81 1.42 1.815 1.302 1-.114 1.815-.888 1.815-1.725 0-.84-.751-1.505-1.905-1.395z"/></g></svg><svg width="64" height="64" viewBox="-5 -5 64 64" y="238"><title>icon/全局/分享/微信</title><defs><path id="a" d="M0 20.633V0h22.695v20.633H0z"/></defs><g fill="none" fill-rule="evenodd"><circle fill="#FFF" opacity=".2" cx="27" cy="27" r="27"/><g transform="translate(12 13)"><mask id="b" fill="#fff"><use xlink:href="#a"/></mask><path d="M11.297 19.22c-1.41 0-2.544-.288-3.957-.567l-3.95 1.98 1.13-3.398C1.693 15.258 0 12.71 0 9.608 0 4.233 5.087 0 11.297 0c5.555 0 10.42 3.382 11.398 7.934a9.804 9.804 0 0 0-1.087-.066c-5.367 0-9.605 4.004-9.605 8.94 0 .82.128 1.612.349 2.367-.35.027-.701.045-1.055.045zM7.044 5.095c-.847 0-1.701.56-1.701 1.41 0 .847.854 1.413 1.7 1.413.848 0 1.41-.566 1.41-1.414 0-.849-.562-1.409-1.41-1.409zM14.95 7.92c.85 0 1.414-.566 1.414-1.414 0-.85-.563-1.41-1.414-1.41-.847 0-1.696.56-1.696 1.41 0 .848.849 1.414 1.696 1.414z" fill="#FFF" mask="url(#b)"/></g><path d="M39.961 36.177l.85 2.823-3.099-1.697c-1.13.283-2.265.567-3.39.567-5.375 0-9.608-3.673-9.608-8.198 0-4.516 4.233-8.198 9.608-8.198 5.077 0 9.596 3.682 9.596 8.198 0 2.548-1.689 4.804-3.957 6.505zm-9.337-8.887c-.562 0-1.13.566-1.13 1.13 0 .57.568 1.13 1.13 1.13.855 0 1.414-.56 1.414-1.13 0-.564-.56-1.13-1.414-1.13zm6.214 0c-.56 0-1.122.566-1.122 1.13 0 .57.563 1.13 1.122 1.13.847 0 1.414-.56 1.414-1.13 0-.564-.567-1.13-1.414-1.13z" fill="#FFF"/></g></svg><svg width="64" height="64" viewBox="-5 -5 64 64" y="302"><title>icon/全局/分享/易信</title><g fill="none" fill-rule="evenodd"><circle fill="#FFF" opacity=".2" cx="27" cy="27" r="27"/><path d="M16.695 35.662c7.474 3.822 17.066-.156 17.078-9.152.005-4.25-3.205-7.19-7.157-7.19s-7.156 3.22-7.156 7.19a7.194 7.194 0 0 0 3.329 6.076c-1.9 3.685-6.094 3.076-6.094 3.076M26.5 13C33.954 13 40 19.074 40 26.564a13.57 13.57 0 0 1-6.275 11.46c.834 1.038 2.166 1.776 3.998 2.214-7.055 2.46-13.843-.148-15.086-.674a13.563 13.563 0 0 1-9.637-13C13 19.074 19.045 13 26.5 13" fill="#FEFEFE"/></g></svg></svg>