<svg xmlns="http://www.w3.org/2000/svg" xmlns:xlink="http://www.w3.org/1999/xlink" width="38" height="439"><svg width="24" height="26" viewBox="-5 -5 24 26"><title>icon/全局/mini导航/采购清单2</title><g transform="translate(-1)" fill="#999" fill-rule="evenodd"><path d="M3 2v3h10V2h2v14H1V2h2zm1 5v2h8V7H4zm0 4v2h8v-2H4z"/><path d="M4 2h8v2H4z"/><circle cx="8" cy="2" r="2"/></g></svg><svg width="30" height="30" viewBox="-5 -5 30 30" y="26"><title>icon/全局/采购清单 个位数</title><circle cx="10" cy="10" r="10" fill="#b0882f" fill-rule="evenodd"/></svg><svg width="38" height="30" viewBox="-5 -5 38 30" y="56"><title>icon/全局/采购清单 99+</title><path d="M10 0C4.477 0 0 4.477 0 10s4.477 10 10 10h8c5.523 0 10-4.477 10-10S23.523 0 18 0h-8z" fill="#b0882f" fill-rule="evenodd"/></svg><svg width="34" height="34" viewBox="-5 -5 34 34" y="86"><title>icon/全局/采购清单</title><g fill="#999" fill-rule="evenodd"><path d="M6 3H3v20h18V3h-3v3H6V3zm1 6h10v2H7V9zm0 4h10v2H7v-2zm0 4h10v2H7v-2zM7 3h10v2H7V3z"/><path d="M9 4a3 3 0 1 1 6 0H9z"/></g></svg><svg width="18" height="18" viewBox="-5 -5 18 18" y="120"><title>icon/全局/搜索词删除常规</title><path d="M0 0h1v1H0V0zm1 1h1v1H1V1zm1 1h1v1H2V2zm1 1h1v1H3V3zm1 1h1v1H4V4zm1 1h1v1H5V5zm1 1h1v1H6V6zm1 1h1v1H7V7zM4 3h1v1H4V3zm1-1h1v1H5V2zm1-1h1v1H6V1zm1-1h1v1H7V0zM3 4h1v1H3V4zM2 5h1v1H2V5zM1 6h1v1H1V6zM0 7h1v1H0V7z" fill="#999" fill-rule="evenodd"/></svg><svg width="18" height="18" viewBox="-5 -5 18 18" y="138"><title>icon/全局/搜索词删除hover</title><path d="M0 0h1v1H0V0zm1 1h1v1H1V1zm1 1h1v1H2V2zm1 1h1v1H3V3zm1 1h1v1H4V4zm1 1h1v1H5V5zm1 1h1v1H6V6zm1 1h1v1H7V7zM4 3h1v1H4V3zm1-1h1v1H5V2zm1-1h1v1H6V1zm1-1h1v1H7V0zM3 4h1v1H3V4zM2 5h1v1H2V5zM1 6h1v1H1V6zM0 7h1v1H0V7z" fill="#B0882F" fill-rule="evenodd"/></svg><svg width="26" height="26" viewBox="-5 -5 26 26" y="156"><title>icon/全局/最近搜索删除 常规</title><g fill="none" fill-rule="evenodd"><path fill="#999" d="M2 2h12v1H2z"/><path fill="#999" d="M7 1h2v2H7zM6 5h1v8H6zm3 0h1v8H9z"/><path d="M3 2h10v13H3V2zm1 1v11h8V3H4z" fill="#979797"/></g></svg><svg width="26" height="26" viewBox="-5 -5 26 26" y="182"><title>icon/全局/最近搜索删除 hover</title><g fill="#B0882F" fill-rule="evenodd"><path d="M2 2h12v1H2z"/><path d="M7 1h2v2H7zM6 5h1v8H6zm3 0h1v8H9z"/><path d="M3 2h10v13H3V2zm1 1v11h8V3H4z"/></g></svg><svg width="34" height="34" viewBox="-5 -5 34 34" y="208"><title>icon/全局/mini导航/热线</title><path d="M22.79 17.851l-4.614-2.72a.72.72 0 0 0-.782.124l-1.358 1.358c-.19.19-.566.349-.835.352 0 0-1.735.02-4.961-3.207S7.029 8.79 7.029 8.79c.003-.269.16-.645.35-.835l1.158-1.158a.757.757 0 0 0 .142-.791L6.134 1.217c-.113-.245-.36-.289-.551-.099l-3.156 3.15a1.672 1.672 0 0 0-.411.83S1.4 9.701 7.846 16.151c6.449 6.449 11.05 5.833 11.05 5.833.267-.036.64-.221.83-.411l3.154-3.154c.19-.19.15-.446-.09-.568" fill="#999" fill-rule="evenodd"/></svg><svg width="30" height="30" viewBox="-5 -5 30 30" y="242"><title>icon/全局/汉堡分类</title><path d="M2 4h16v2H2V4zm0 5h16v2H2V9zm0 5h16v2H2v-2z" fill="#fff" fill-rule="evenodd"/></svg><svg width="22" height="26" viewBox="-5 -5 22 26" y="272"><title>icon/全局/mini导航/多地址2</title><path d="M6.85 14.868a1 1 0 0 1-1.697.004L1.127 9.509h.005a6 6 0 1 1 9.78-.062h.005L6.85 14.868zM6 9a3 3 0 1 0 0-6 3 3 0 0 0 0 6z" fill="#999" fill-rule="evenodd"/></svg><svg width="32" height="32" viewBox="-5 -5 32 32" y="298"><title>icon/全局/搜索</title><g transform="translate(1 1)" fill="#FFF" fill-rule="evenodd"><path d="M8.5 17a8.5 8.5 0 1 1 0-17 8.5 8.5 0 0 1 0 17zm0-2a6.5 6.5 0 1 0 0-13 6.5 6.5 0 0 0 0 13z"/><rect transform="rotate(-45 15.89 16.89)" x="14.889" y="12.803" width="2" height="8.172" rx="1"/></g></svg><svg width="23" height="23" viewBox="-5 -5 23 23" y="330"><title>icon/全局/搜索 初期 copy</title><defs><path id="a" d="M0 .8L3.2 4l.8-.8L.8 0z"/></defs><g fill="none" fill-rule="evenodd"><path d="M5.5 1A4.505 4.505 0 0 0 1 5.5C1 7.981 3.019 10 5.5 10S10 7.981 10 5.5 7.981 1 5.5 1m0 10A5.506 5.506 0 0 1 0 5.5C0 2.467 2.468 0 5.5 0S11 2.467 11 5.5 8.532 11 5.5 11" fill="#CBCCCC"/><g transform="translate(9 8)"><mask id="b" fill="#fff"><use xlink:href="#a"/></mask><path fill="#CBCCCC" mask="url(#b)" d="M-7 .92L.92-7 11 3.08 3.08 11z"/></g></g></svg><svg width="23" height="26" viewBox="-5 -5 23 26" y="353"><title>icon/全局/mini导航/热线电话mini</title><path d="M12.929 13.465l-2.674-2.367a.48.48 0 0 0-.527-.018l-1.062.716a.924.924 0 0 1-.591.124s-1.138-.208-2.838-2.73c-1.701-2.522-1.47-3.66-1.47-3.66a.92.92 0 0 1 .336-.501l.905-.61a.505.505 0 0 0 .193-.5L4.145.46c-.043-.175-.2-.235-.348-.135l-2.466 1.66c-.15.1-.318.321-.375.491 0 0-.989 2.934 2.41 7.975 3.4 5.04 6.489 5.223 6.489 5.223.18.01.447-.063.596-.164l2.464-1.662c.149-.1.155-.273.014-.384z" fill="#CCC"/></svg><svg width="34" height="34" viewBox="-5 -5 34 34" y="379"><title>icon/全局/mini导航/个人👤</title><path d="M12.455 11C14.75 11 17 8.75 17 6.455 17 3.25 14.75 1 12.455 1 9.25 1 7 3.25 7 6.455 7 8.75 9.25 11 12.455 11zM12 13c-3.374 0-10 1.516-10 5v4h20v-4c0-3.484-6.626-5-10-5z" fill="#999"/></svg><svg width="26" height="26" viewBox="-5 -5 26 26" y="413"><title>icon/全局/vip</title><g fill="none" fill-rule="evenodd"><rect fill="#B0882F" width="16" height="16" rx="2"/><path d="M3 4v8.99h6.539-4.542L14.087 3l-3.276.012-5.814 6.163V3.012L4 3.006V3H2v1h1z" fill-rule="nonzero" fill="#FFF"/></g></svg></svg>