<svg xmlns="http://www.w3.org/2000/svg" xmlns:xlink="http://www.w3.org/1999/xlink" width="61" height="1046"><svg width="40" height="40" viewBox="-5 -5 40 40"><title>icon/辅助/独享低价</title><g fill="none" fill-rule="evenodd"><path d="M15 28c7.18 0 13-5.82 13-13S22.18 2 15 2 2 7.82 2 15s5.82 13 13 13zm0 1C7.268 29 1 22.732 1 15S7.268 1 15 1s14 6.268 14 14-6.268 14-14 14z" fill="#666" fill-rule="nonzero"/><path stroke="#666" d="M8.5 13.5h13v1h-13zm0 4h13v1h-13z"/><path stroke="#666" d="M14.5 15.5h1v8h-1zm-3.817-7.317l.866-.5 3 5.196-.866.5zm5.866 5.197l-.866-.5 3-5.197.866.5-3 5.196z"/></g></svg><svg width="40" height="40" viewBox="-5 -5 40 40" y="40"><title>icon/辅助/企业定制</title><g fill="#666"><path d="M15 28c7.18 0 13-5.82 13-13S22.18 2 15 2 2 7.82 2 15s5.82 13 13 13zm0 1C7.268 29 1 22.732 1 15S7.268 1 15 1s14 6.268 14 14-6.268 14-14 14z"/><path d="M22.888 9.54c-.559 0-1.012.446-1.012.999 0 .338.171.636.432.817l-4.326 4.535-2.884-6.348c.48-.078.848-.487.848-.984 0-.552-.454-.999-1.013-.999-.558 0-1.012.447-1.012 1 0 .486.353.89.819.98l-2.932 6.35-4.315-4.352a.994.994 0 0 0 .432-.817c0-.552-.453-1-1.012-1-.559 0-1.012.448-1.012 1 0 .553.453 1 1.012 1 .033 0 .064-.007.097-.01L9.99 22.56h9.914l2.888-11.031c.032.003.063.01.096.01.56 0 1.013-.448 1.013-1 0-.553-.454-1-1.013-1z"/></g></svg><svg width="40" height="40" viewBox="-5 -5 40 40" y="80"><title>icon/辅助/增票保障</title><g fill="none" fill-rule="evenodd"><path d="M15 28c7.18 0 13-5.82 13-13S22.18 2 15 2 2 7.82 2 15s5.82 13 13 13zm0 1C7.268 29 1 22.732 1 15S7.268 1 15 1s14 6.268 14 14-6.268 14-14 14z" fill="#666" fill-rule="nonzero"/><path d="M23.937 9c-4.83.16-7.893-1.385-8.794-1.916A9.013 9.013 0 0 1 15 7l-.142.084c-.902.53-3.964 2.077-8.795 1.916 0 0-1.39 11.61 8.86 15.965.026.01.051.024.077.035.027-.011.051-.024.077-.035C25.327 20.61 23.937 9 23.937 9z" fill="#666" fill-rule="nonzero"/><path fill="#FFF" d="M10.525 16.44l1.414-1.415 3.536 3.536-1.414 1.414z"/><path fill="#FFF" d="M19.096 12.097l1.415 1.414-6.434 6.433-1.414-1.414z"/></g></svg><svg width="40" height="40" viewBox="-5 -5 40 40" y="120"><title>icon/辅助/企业金融</title><g fill="#666" fill-rule="evenodd"><path d="M15 28c7.18 0 13-5.82 13-13S22.18 2 15 2 2 7.82 2 15s5.82 13 13 13zm0 1C7.268 29 1 22.732 1 15S7.268 1 15 1s14 6.268 14 14-6.268 14-14 14z" fill-rule="nonzero"/><path d="M26.939 16.94c.573-3.29-3.059-1.463-3.059-1.463l-5.735 2.741s-2.102.366-3.823-.548c-2.676-1.462-4.396-2.741-5.352-2.924-2.294-.73-4.97 1.28-4.97 1.28s0 3.837.382 5.116c.191 2.193 1.338.366 1.147.549.383-.366.191-.183.574-.366 1.338-.914 2.867-.183 3.058-.183l5.926 2.01c1.72.914 2.867.183 3.25-.365 3.44-2.01 8.602-5.848 8.602-5.848zM14 6h2v8h-2z"/><path d="M15 12h5v2h-5z"/></g></svg><svg width="21" height="21" viewBox="-5 -5 21 21" y="160"><title>icon/全局/➕加入采购清单</title><path d="M4 4H0v3h4v4h3V7h4V4H7V0H4v4z" fill="#b0882f" fill-rule="evenodd"/></svg><svg width="21" height="21" viewBox="-5 -5 21 21" y="181"><title>icon/全局/➕加入采购清单</title><path d="M4 4H0v3h4v4h3V7h4V4H7V0H4v4z" fill="#FFF" fill-rule="evenodd"/></svg><svg width="34" height="34" viewBox="-5 -5 34 34" y="202"><title>icon/辅助/地址@2x</title><path d="M17.842 17.477c-.835.936-2.15 2.93-4.455 5.802-.385.463-.914.721-1.475.721-.565 0-1.085-.261-1.46-.714L5.988 17.2C4.42 15.475 2 12.023 2 9.619 2 4.314 6.37 0 11.924 0 17.48 0 22 4.315 22 9.618c-.002 3.105-3.733 7.379-4.158 7.859zM12 14c-2.756 0-5-2.242-5-5s2.244-5 5-5c2.757 0 5 2.242 5 5s-2.243 5-5 5z" fill="#B0882F" fill-rule="evenodd"/></svg><svg width="30" height="30" viewBox="-5 -5 30 30" y="236"><title>icon/全局/列表删除</title><g fill="none" fill-rule="evenodd"><path d="M7 4h6V2H7v2zm1 0h4.001V3H8v1zM3 5h13.999V4H3z" fill="#999899"/><path d="M4 18h12V6H4v12zm1-1h10V7H5v10z" fill="#979797"/><path fill="#999899" d="M8 16h1V8H8zm3 0h1.001V8H11z"/></g></svg><svg width="26" height="26" viewBox="-5 -5 26 26" y="266"><title>！ copy</title><g transform="translate(1 1)" fill="none" fill-rule="evenodd"><circle stroke="#B0882F" cx="7" cy="7" r="7"/><path fill="#B0882F" d="M6 3h2v5H6zm0 6h2v2H6z"/></g></svg><svg width="34" height="34" viewBox="-5 -5 34 34" y="292"><title>icon/全局/cancle 弹窗 常规</title><path d="M23.293 22.629l-.664.664-10.275-10.275-.354-.354-.354.354L1.371 23.293l-.664-.664 10.275-10.275.354-.354-.354-.354L.707 1.371l.664-.664 10.275 10.275.354.354.354-.354L22.629.707l.664.664-10.275 10.275-.354.354.354.354 10.275 10.275z" stroke="#CCC" fill="none"/></svg><svg width="34" height="34" viewBox="-5 -5 34 34" y="326"><title>icon/全局/cancle 弹窗 hover</title><path d="M23.293 22.629l-.664.664-10.275-10.275-.354-.354-.354.354L1.371 23.293l-.664-.664 10.275-10.275.354-.354-.354-.354L.707 1.371l.664-.664 10.275 10.275.354.354.354-.354L22.629.707l.664.664-10.275 10.275-.354.354.354.354 10.275 10.275z" stroke="#999" fill="none"/></svg><svg width="16" height="16" viewBox="-5 -5 16 16" y="360"><title>icon/辅助/dot-gold</title><circle cx="3" cy="3" r="3" fill="#B0882F" fill-rule="evenodd"/></svg><svg width="16" height="16" viewBox="-5 -5 16 16" y="376"><title>icon/辅助/dot-gold</title><circle cx="3" cy="3" r="3" fill="#D8D8D8" fill-rule="evenodd"/></svg><svg width="61" height="61" viewBox="-5 -5 61 61" y="392"><title>icon/辅助/物流</title><g fill="none" fill-rule="evenodd"><circle fill="#B0882F" cx="25.5" cy="25.5" r="25.5"/><g transform="translate(7 15)" fill="#FFF"><path d="M31 21h3.007a.996.996 0 0 0 .993-.999V1a.99.99 0 0 0-.993-1H17.993A.996.996 0 0 0 17 .999V20c0 .56.445.999.993.999H21a5 5 0 0 1 10 0z"/><circle cx="26" cy="21" r="4"/><path d="M6.013 3h8.986C15.552 3 16 3.455 16 4v15c0 .552-.445 1-1 1h-2.1a5.002 5.002 0 0 0-9.8 0H1c-.552 0-1-.455-1-1v-8.834L6.013 3zm1 3L3 10.783V13h9V6H7.013z"/><circle cx="8" cy="21" r="4"/></g></g></svg><svg width="20" height="22" viewBox="-5 -5 20 22" y="453"><title>icon/辅助/物流节点</title><path d="M5 0C2.239 0 0 2.147 0 4.796c0 2.648 3.918 6.702 3.918 6.702.598.668 1.575.672 2.167-.004 0 0 3.915-4.05 3.915-6.698C10 2.147 7.761 0 5 0z" fill="#999"/></svg><svg width="60" height="60" viewBox="-5 -5 60 60" y="475"><title>icon/空白页/fail</title><defs><rect id="a" x="14" y="33" width="22" height="2" rx="1"/></defs><g fill="none" fill-rule="evenodd"><path d="M25 48c12.703 0 23-10.297 23-23S37.703 2 25 2 2 12.297 2 25s10.297 23 23 23zm0 2C11.193 50 0 38.807 0 25S11.193 0 25 0s25 11.193 25 25-11.193 25-25 25z" fill="#999" fill-rule="nonzero"/><rect fill="#999" x="15" y="17" width="2" height="5" rx="1"/><use fill="#D8D8D8" xlink:href="#a"/><rect stroke="#979797" x="14.5" y="33.5" width="21" height="1" rx=".5"/><rect fill="#999" x="34" y="17" width="2" height="5" rx="1"/></g></svg><svg width="20" height="23" viewBox="-5 -5 20 23" y="535"><title>Combined Shape</title><path d="M5.05 0L10 4.95V13H0V0h5.05zM4 0v5h1V0H4zm0 5v1h6V5H4z" fill="#B0882F" fill-rule="evenodd"/></svg><svg width="26" height="26" viewBox="-5 -5 26 26" y="558"><title>icon/全局/帮助中心</title><g fill="none" fill-rule="evenodd"><circle fill="#B0882F" cx="8" cy="8" r="8"/><path d="M8.117 3.734c-.975 0-1.744.302-2.307.906C5.275 5.217 5 5.986 5 6.947h1.098c0-.673.151-1.194.44-1.579.343-.453.851-.673 1.524-.673.576 0 1.03.151 1.36.48.301.303.452.729.452 1.278 0 .384-.137.741-.398 1.084-.096.11-.247.275-.467.495-.741.659-1.208 1.18-1.387 1.592-.178.344-.26.742-.26 1.195v.316h1.112v-.316c0-.37.082-.714.26-1.016.138-.247.344-.494.632-.741.604-.536.989-.893 1.126-1.058.33-.453.508-.988.508-1.606 0-.824-.26-1.47-.769-1.936-.522-.494-1.236-.728-2.114-.728zm-.193 8.362c-.247 0-.439.068-.59.233a.748.748 0 0 0-.247.577c0 .233.082.426.247.59a.796.796 0 0 0 .59.234c.22 0 .426-.083.59-.234a.796.796 0 0 0 .234-.59.786.786 0 0 0-.233-.577.786.786 0 0 0-.59-.233z" fill="#FFF"/></g></svg><svg width="58" height="58" viewBox="-5 -5 58 58" y="584"><title>icon/辅助/放大镜</title><g fill="none" fill-rule="evenodd"><circle fill-opacity=".5" fill="#000" cx="24" cy="24" r="24"/><circle stroke="#FFF" cx="22" cy="23" r="11.5"/><path d="M21 22h-4v2h4v4h2v-4h4v-2h-4v-4h-2v4z" fill="#FFF"/><rect fill="#FFF" transform="rotate(-50 35.24 33.623)" x="34.239" y="27.623" width="2" height="12" rx="1"/></g></svg><svg width="27" height="26" viewBox="-5 -5 27 26" y="642"><title>选择框/勾选选中状态 sku等</title><g fill="none" fill-rule="evenodd"><path fill="#B0882F" d="M17 0v16H0z"/><g fill="#FFF"><path d="M8 10.707L8.708 10l2.5 2.5-.707.707z"/><path d="M10.765 13.481l-.707-.707 4.808-4.808.707.707z"/></g></g></svg><svg width="36" height="36" viewBox="-5 -5 36 36" y="668"><title>上传</title><g fill="#FFF" fill-rule="evenodd"><path d="M12 2h2v18h-2z"/><path d="M11.5 2.171L12.914.757l7.072 7.071-1.415 1.414zM0 16h2v10H0z"/><path d="M1 24h23v2H1zm23-8h2v10h-2zM7.474 8.913L6.06 7.5 12.858.702l1.414 1.414z"/></g></svg><svg width="36" height="38" viewBox="-5 -5 36 38" y="704"><title>清单详情</title><g fill="#666" fill-rule="evenodd"><path d="M0 0h26v28H0V0zm2 2v24h22V2H2z"/><path d="M6 7h14v2H6zm0 5h14v2H6zm0 5h10v2H6z"/></g></svg><svg width="36" height="38" viewBox="-5 -5 36 38" y="742"><title>清单详情</title><g fill="#FFF" fill-rule="evenodd"><path d="M0 0h26v28H0V0zm2 2v24h22V2H2z"/><path d="M6 7h14v2H6zm0 5h14v2H6zm0 5h10v2H6z"/></g></svg><svg width="41" height="39" viewBox="-5 -5 41 39" y="780"><title>成功下单</title><g fill="#666" fill-rule="evenodd"><path d="M19.621 25.407L29.028 16l1.415 1.414-10.829 10.829-1.414-1.415.007-.007-4.407-4.407L15.214 21l4.407 4.407zM26 17h-2V2H2v24h12v2H0V0h26v17z"/><path d="M6 7h14v2H6zm0 5h14v2H6zm0 5h10v2H6z"/></g></svg><svg width="60" height="60" viewBox="-5 -5 60 60" y="819"><title>Oval</title><circle cx="25" cy="25" r="25" fill="#B0882F" fill-rule="evenodd"/></svg><svg width="60" height="60" viewBox="-5 -5 60 60" y="879"><title>Oval Copy</title><circle cx="25" cy="25" r="24" stroke="#999" stroke-width="2" fill="none" opacity=".4"/></svg><svg width="39" height="31" viewBox="-5 -5 39 31" y="939"><title>上传</title><g fill="#FFF" fill-rule="evenodd"><path d="M.92 11.611l1.414-1.414 9.192 9.192-1.414 1.415z"/><path d="M8.949 19.14L27.334.756l1.414 1.414-18.385 18.385z"/></g></svg><svg width="50" height="50" viewBox="-5 -5 50 50" y="970"><title>icon/全局/提交成功</title><g transform="translate(2 2)" fill="none" fill-rule="evenodd"><circle stroke="#22AC38" stroke-width="2" cx="18" cy="18" r="17"/><path fill="#22AC38" d="M8 19.414L9.416 18l5.657 5.657-1.414 1.414z"/><path fill="#22AC38" d="M26.23 11.032l1.414 1.414-13.308 13.308-1.414-1.414z"/></g></svg><svg width="26" height="26" viewBox="-5 -5 26 26" y="1020"><title>icon/全局/information</title><path d="M7.98.042A7.98 7.98 0 1 0 7.98 16a7.98 7.98 0 0 0 0-15.96zm.02 3a1 1 0 1 1 0 2 1 1 0 0 1 0-2zm.108 9.7c-.856.691-1.777.12-1.535-1.023l.675-4.365-.904-.616c-.39-.282-.576-.696.147-.696h2.962l-.892 4.724 1.915-.65c.458-.189.752-.01.295.376l-2.663 2.25z" fill="#B0882F" fill-rule="evenodd"/></svg></svg>