<svg xmlns="http://www.w3.org/2000/svg" xmlns:xlink="http://www.w3.org/1999/xlink" width="232" height="170"><svg width="149" height="58" viewBox="-5 -5 149 58"><title>严选logo</title><defs><path id="a" d="M0 22.16V.516h18.362V22.16H0z"/><path id="c" d="M3.057.061H.453v2.91h2.604V.06z"/></defs><g fill="none" fill-rule="evenodd"><path d="M7.467 6.031c-.144 1.46-.29 2.92-.656 4.4-.73-.71-1.446-1.364-2.304-1.832-.127-.069-.268-.31-.436-.083-.145.199-.064.372.116.538.799.732 1.461 1.578 2.066 2.473.083.122.19.213.12.413-.65 1.841-1.544 3.543-2.881 5.12 0-1.056-.004-2.007.001-2.956.014-2.554.007-5.107.196-7.656.023-.318.097-.439.43-.458.97-.055 1.935-.177 2.889-.37.341-.07.5.002.459.411m10.701 5.151c-.024-2.1-.265-4.22.11-6.289.15-.835-.087-1.13-.63-1.586-.455-.385-.837-.484-1.388-.352-3.702.88-7.473 1.346-11.244 1.803-.376.045-.81.124-1.132-.014-.575-.247-1.208-.128-1.837-.541a5.4 5.4 0 0 1 .212 1.224c.183 3.752.03 7.502-.037 11.254-.022 1.14-.084 2.285-.26 3.424-.052.324-.576.592-.202.922.26.229.648.31.98.46l.047.02c.578.24.636.208.643-.39.011-1.025.03-2.05.02-3.075-.007-.481-.026-.796.608-1.016 1.07-.369 1.72-1.308 2.255-2.282.304-.556.564-1.14.863-1.753.633.946 1.194 1.869 1.703 2.973.25-.617.455-1.12.658-1.625.046-.113-.027-.192-.084-.281-.498-.772-.944-1.58-1.526-2.292-.184-.224-.228-.42-.142-.7.443-1.461.704-2.962.944-4.467.036-.223.083-.446.092-.668.011-.296-.383-.252-.463-.494 1.404-.227 2.79-.46 4.193-.577.199-.017.37-.08.352.239-.094 1.672-.263 3.332-.663 5.012-.858-.838-1.703-1.608-2.738-2.126-.143-.072-.287-.31-.475-.098-.213.242-.02.4.152.559.922.853 1.73 1.804 2.47 2.816.106.144.238.255.153.5-.46 1.327-.972 2.624-1.67 3.847-.538.944-1.186 1.813-1.771 2.734 2.631-.887 3.425-3.253 4.345-5.57.953 1.434 1.863 2.783 2.538 4.318.286-.373.388-.764.563-1.117.174-.353.13-.66-.082-1.012-.711-1.193-1.436-2.373-2.334-3.437-.176-.207-.239-.397-.158-.657.499-1.593.716-3.243 1.008-4.88.097-.537.224-1.094-.547-1.305.76-.084 1.52-.163 2.278-.254.57-.07.658-.003.667.59.043 2.85.086 5.697.12 8.545.025 2.015.036 4.03.049 6.045.005.71-.007.717-.734.71a15.247 15.247 0 0 1-2.021-.167c-.107-.015-.257-.114-.318.037a.311.311 0 0 0 .119.371c.112.078.242.13.365.193 1.204.61 2.439 1.163 3.597 1.864.125.074.218.272.398.181.187-.093.143-.303.14-.467-.06-3.717-.142-7.433-.186-11.149" fill="#231815"/><g transform="translate(0 25.229)"><mask id="b" fill="#fff"><use xlink:href="#a"/></mask><path d="M5.5 3.13c2.042-.469 3.96-.826 5.91-.963.381-.026.762-.045 1.144-.067.345-.02.523.145.522.489-.005 1.63-.016 3.264-.015 4.896 0 .215-.096.243-.278.268a898.39 898.39 0 0 0-6.44.902c-.21.03-.273-.021-.268-.232a36.58 36.58 0 0 0 0-1.615c-.004-.21.06-.279.28-.332 1.725-.414 3.482-.609 5.238-.814.26-.03.588.274.729-.025.081-.173-.153-.474-.191-.726-.084-.56-.423-.582-.869-.476-1.452.347-2.945.453-4.417.688-.742.118-.763.065-.731-.667.005-.12.018-.241.02-.363.014-.422.069-.864-.635-.963m12.69 9.018c-.46-.376-.843-.828-1.224-1.278-.158-.186-.315-.226-.544-.171-2.484.595-5.01.936-7.548 1.186-.973.096-1.949.171-3.048.267.508-.539.88-1.03 1.346-1.4.443-.353.449-.633.032-.996 1.096-.274 2.169-.375 3.232-.531 1.114-.164 2.26-.398 3.245.436.4.338.546.144.572-.264.068-1.073.13-2.147.176-3.22.064-1.438.064-2.88.34-4.303.067-.349-1.338-1.465-1.699-1.35-.941.304-1.902.521-2.873.702-2.012.372-4.022.757-6.06.97-.276.027-.729-.068-.795.056-.145.273.249.46.374.71.098.201.169.501.505.399.428-.13.474.11.505.445.153 1.578.18 3.162.022 4.734-.065.659.018 1.121.595 1.462.354.209.315.432.051.723-1.463 1.615-3.017 3.12-4.92 4.222-.162.093-.392.127-.473.445 1.897.018 3.276-.953 4.6-2.117.086.644.527.557.948.49.611-.099 1.184-.388 1.943-.394-1.736 1.957-3.535 3.62-5.735 4.81-.119.065-.361.086-.3.286.054.177.269.136.415.11.72-.123 1.431-.289 2.07-.655 1.906-1.09 3.472-2.588 4.986-4.149.058-.06.142-.166.124-.219-.222-.64.297-.465.581-.526.339-.07.682-.135 1.027-.161.593-.045 1.17-.248 1.832-.205-.119.2-.197.35-.294.488-1.934 2.737-4.05 5.298-6.884 7.17-.122.081-.355.13-.286.312.07.187.286.138.462.106 1.227-.22 2.295-.77 3.223-1.587 1.967-1.732 3.574-3.783 5.135-5.872.243-.327.152-.59-.173-.9.797-.073 1.501-.163 2.207-.192.48-.02.72.335.594.788-.09.316-.18.63-.28.944-.56 1.768-1.255 3.484-2.23 5.065-.737 1.19-1.242 1.274-2.426.534-.298-.186-.587-.392-.939-.48-.102.243.085.336.189.462.577.694 1.228 1.32 1.733 2.077.493.742.795.76 1.435.145.66-.634 1.12-1.416 1.479-2.243.95-2.186 1.864-4.387 2.791-6.584.109-.254.256-.507-.038-.747" fill="#231815" mask="url(#b)"/></g><path d="M61.735 18.273c-.732 0-1.505.082-2.317.244-1.261.162-2.645.326-4.15.488V9.316a44.5 44.5 0 0 1-.06-1.767c0-.284-.143-.509-.427-.67-.285 0-.65-.081-1.098-.245 1.423-.161 2.806-.325 4.148-.487 1.18-.203 2.48-.386 3.904-.548v12.674zm18.24-1.401c-.04-1.014-.304-1.523-.792-1.523-1.139.162-4.231.752-9.272 1.767a65.22 65.22 0 0 0-5.37.73c.082-1.177.143-2.233.183-3.168a76.51 76.51 0 0 1 1.953-.732c3.05-1.136 5.063-1.948 6.038-2.437 1.059-.365 1.852-.71 2.381-1.035.771-.284 1.158-.67 1.158-1.158 0-.162-.162-.325-.488-.487a4.674 4.674 0 0 1-1.037-.793c-.814-.447-1.26-.752-1.341-.913h-.306c-1.139 1.462-3.904 3.33-8.296 5.605.161-3.128.283-5.158.365-6.094 0-.325-.1-.587-.304-.791-.815 0-1.506-.082-2.074-.244 1.707-.161 3.6-.326 5.673-.487 2.155-.162 4.25-.305 6.283-.427.488.122.894.182 1.22.182.082 0 .122-.142.122-.426a14.431 14.431 0 0 1-.305-1.767c-.04-.935-.203-1.401-.488-1.401-.406 0-2.644.326-6.71.975-4.026.609-7.36 1.097-10.005 1.462-2.4.488-5.898.875-10.492 1.157a266.01 266.01 0 0 0-4.21.489h-3.234c0 .326.102.67.305 1.035.123.488.265 1.118.428 1.89.08.526.224.79.428.79.365 0 2.134-.425 5.306-1.278a66.858 66.858 0 0 1 4.637-.67c.04.161.081.303.121.426.122 1.341.224 2.66.305 3.96l-.67-.548a301.98 301.98 0 0 1-6.405 2.985c-2.074.814-3.255 1.22-3.539 1.22-.122.121-.346.183-.671.183l-.122.243c.161.163.427.406.793.732.366.528.692.954.975 1.279.123.162.245.304.367.426h.488c.771 0 2.42-.893 4.94-2.68a32.495 32.495 0 0 0 3.844-3.596c.163 2.56.245 5.16.245 7.8-2.196.163-2.59.158-5.192.483-1.992.285-3.498.427-4.514.427a46.696 46.696 0 0 1-4.636.244l-.123.243c.163.365.387.954.672 1.767.446 1.138.752 1.706.915 1.706.447 0 1.28-.182 2.5-.548 1.016-.325 2.766-.71 5.248-1.158 2.601-.487 3.482-.747 6.655-1.275 6.384-.935 13.4-1.563 21.047-1.889 2.928 0 4.778.082 5.55.243.123 0 .184-.08.184-.243-.285-.69-.53-1.584-.732-2.681zm-31.222 8.671c-.2-.213-.343-.284-.487-.436-.576-.564-1.147-.759-1.317-1.261l-.459.077-.171.71c-.238.989-.264 1.261-2.313 6.117-1.162 2.563-2.345 4.867-3.551 6.916-2.48 4.042-5.059 7.099-7.733 9.172-.039.158.1.275.417.351 2.448.086 4.885-1.665 7.62-4.886 4.107-4.84 7.642-12.992 7.825-13.289.54-.88 1.125-1.694 1.278-2.325.028-.12.022-.182-.017-.192-.39-.472-.558-.46-1.092-.954m66.097-.453a8.6 8.6 0 0 1-.942-.688c-.166-.138-.339-.197-.483-.282-.263-.184-.625-.354-.89-.354-.128 0-.196.425-.196.439 0 .557-.013 1.72-1.172 4.395-.728 1.676-1.342 2.303-2.228 3.212-1.88 1.928-3.24 2.116-5.693 3.554 0 .294.178.44.54.44 2.743-.143 4.764-.383 6.285-1.591 1.744-1.403 2.6-2.411 3.94-5.418 1.146-1.993 1.419-2.615 1.419-2.975 0-.262-.203-.495-.58-.732m20.161 8.824a80.551 80.551 0 0 1-1.03-4.754c-.13-.129-.246-.195-.344-.195a91.046 91.046 0 0 1-.294 4.95c-.066 1.012-.245 1.795-.539 2.351-.196.262-.638.458-1.324.588-.72.23-2.061.343-4.024.343-3.86-.13-5.838-1.355-5.936-3.675.228-3.299.637-6.371 1.227-9.213-.1-.13-.18-.196-.247-.196a15.24 15.24 0 0 0-2.085-.57c-.365-.042-.384-.151-.649-.151a.361.361 0 0 0-.328.474c.057.477.071.817.071 1.423-.295 4.967-.442 7.97-.442 9.018 0 3.495 3.533 5.242 10.597 5.242 4.25 0 6.377-.44 6.377-1.322-.097-.816-.44-2.254-1.03-4.313m-9.402-12.22c2.029-.13 3.974-.081 5.838-.246.393.165.736.246 1.03.246.098 0 .147-.147.147-.441-.13-.36-.228-.997-.293-1.52-.034-.913-.18-1.371-.442-1.371-.36 0-2.42.245-6.182.735-2.65.293-5.488.461-7.482.591.066-2.743.145-5.156.242-7.41 1.34-.099 3.446-.254 5.278-.385a34.695 34.695 0 0 1 3.582-.195c.391 0 .751.178 1.029.126.152-.028.13-.19.1-.322-.132-.425-.23-.9-.296-1.422-.033-.751-.164-1.208-.392-1.372-.23 0-1.521.278-3.876.833-1.865.262-3.982.462-5.324.69.067-1.796.115-3.104.148-3.92l.245-2.352c.163-.36.262-.882.295-1.569a1.26 1.26 0 0 0-.343-.392c-.165 0-.426-.064-.786-.196-1.34-.227-2.19-.408-2.55-.539l-.147.197c.227.914.408 2.596.539 5.047 0 1.437-.017 2.81-.05 4.116-1.177.131-1.264.335-2.966.5-.883.13-1.662.203-2.38.333h-.05c.36-.816.638-1.47.834-1.96.327-.816.572-1.355.736-1.617.294-.36.441-.605.441-.735 0-.262-.245-.392-.735-.392a13.93 13.93 0 0 1-1.472-.832c-.785-.36-1.243-.605-1.373-.736-.067 0-.148.066-.246.196.098.229.147.474.147.735 0 1.698-.508 3.92-1.521 6.664-.262 1.177-1.406 3.202-3.435 6.077 0 .13.131.195.393.195h.59c.653-.26 1.912-1.697 3.777-4.311.196-.392.392-.767.59-1.127.064.36.162.54.293.54.197 0 1.2-.18 3.032-.669 1.67-.261 1.874-.535 3.345-.83v7.319c-2.19.26-3.898.578-8.05.805-1.374.131-2.2.16-3.444.234-1.731.103-2.716.067-2.943.196 0 .164.065.44.196.833.097.263.227.703.391 1.323.066.556.18.833.344.833.36 0 1.519-.277 4.43-.833 1.831-.261 3.11-.368 3.977-.484.866-.114 1.706-.175 2.353-.251 1.242-.13 2.056-.26 3.203-.392.915-.13 7.238-.543 9.233-.543M95.465 6.787c.97-1.648 1.357-2.587 1.443-3.626l.443-.214c.41.212.602.383 1.42.54.603.114 1.076.202 1.422.263.402.078.647.208.737.392.16.332.065.65-.287.957-.817 1.03-1.845 2.094-3.084 3.194-1.129 1.046-2.505 2.142-4.128 3.292a4.467 4.467 0 0 1-.79-.365c.688-.924 1.63-2.4 2.824-4.433" fill="#231815"/><path d="M115.43 40.104c-2.183-.433-7.206-1.29-7.938-1.452-4.637-.935-7.54-1.507-9.573-1.872.405-.324 1.662-2.15 2.313-3.004.772-.933 1.159-1.745 1.159-2.436 0-.61-.528-1.24-1.587-1.89a73.867 73.867 0 0 1-2.562-1.949c-1.098-.69-1.646-1.197-1.646-1.523 0-.448.345-1.177 1.037-2.195.204-.423.784-1.599.784-1.599 1.427-2.89 2.777-4.508 3.418-4.976.198.003.3-.11.304-.34.002-.132-.483-.62-1.458-1.464-.776-.771-1.262-1.225-1.458-1.362l-.297-.005a8.015 8.015 0 0 0-.361.784c-3.642.556-1.927.288-5.313.71-2.133.264-1.184.142-3.165.133-.265-.005-.398.126-.404.388.19.433.397.85.62 1.248.248.797.424 1.175.521 1.197.269.064.79-.266 3.807-.719 2.101-.315 2.5-.338 3.083-.335-.617 1.94-1.536 3.103-2.308 4.805 0 0-.656 1.518-1.223 2.217-1.181.65-1.299 1.438-1.299 1.886 0 .528.406.954 1.22 1.279.771.327 1.19.663 2.003 1.272 1.017.853 2.259 1.682 2.868 3.144 0 .538-.735 1.553-1.633 2.577-.186.213-.998 1.123-1.273 1.364-.442.39-.936.744-1.214.908-1.626.936-2.645 1.896-4.11 2.058-.326.204-.487.469-.487.793.687.698.954.98 1.685 2 .532 1.045.89 1.609 1.215 1.609.284 0 .752-.385 1.404-1.157 1.951-2.477 2.5-3.058 3.193-3.058 1.057 0 6.75 1.076 17.082 3.228 3.782.815 5.23 1.1 8.83 2.454 2.765 1.097 4.596 1.645 5.49 1.645a27.622 27.622 0 0 0 2.44-.67c.773-.162 1.872-.487 3.295-.975 2.888-1.014 4.331-1.583 4.331-1.705.245-.163.367-.406.367-.732-5.07-.198-8.63-.019-15.01-.849-3.173-.412-5.302-.924-8.15-1.432" fill="#231815"/><g transform="translate(25.32 .455)"><mask id="d" fill="#fff"><use xlink:href="#c"/></mask><path d="M1.477 2.97h.537V1.685L3.057.06h-.473l-.627.977a1.145 1.145 0 0 0-.065.113c-.02.04-.119.18-.137.227-.023-.049-.118-.187-.14-.229-.021-.041-.04-.073-.054-.099L.951.061H.452l1.024 1.63v1.28z" fill="#231815" mask="url(#d)"/></g><path d="M26.976 9.06a2.952 2.952 0 0 0 .103-.35c.018.072.037.136.054.195.02.058.036.109.053.154l.293.703h-.795l.292-.703zm-.464 1.12h1.13l.323.793h.488L27.076 7.77l-1.381 3.203h.487l.33-.794zm.621 28.324c.02.058.036.109.053.154l.292.703h-.794l.292-.703a2.574 2.574 0 0 0 .103-.349l.054.195zm-1.438 2.068h.486l.332-.794h1.129l.323.794h.489l-1.378-3.204-1.38 3.204zm.575-24.325l2.015 2.093v-3.023h-.407v2.016l-2.014-2.13v3.024h.405zm1.609 30.684l-2.015-2.13v3.023h.406v-1.979l2.015 2.093v-3.023h-.406zm-.524-22.835l.954-1.38h-.544l-.498.717c-.036.055-.07.104-.098.153-.029.044-.055.09-.08.13l-.032-.058a3.975 3.975 0 0 0-.141-.23l-.47-.712h-.557l.936 1.387-1.058 1.522h.561l.571-.83a3.68 3.68 0 0 0 .178-.289c.05.088.105.181.165.281l.008.014.547.824h.586l-1.028-1.53zm-1.499 5.981v1.81c0 .394.1.69.296.884.198.195.522.293.922.293s.721-.098.92-.294c.2-.194.3-.49.3-.883v-1.81h-.474v1.767c0 .262-.06.46-.182.59-.122.131-.324.198-.564.198-.241 0-.447-.067-.568-.199-.122-.13-.182-.327-.182-.59v-1.766h-.468z" fill="#231815"/></g></svg><svg width="149" height="58" viewBox="-5 -5 149 58" y="58"><title>严选logo</title><g fill="none" fill-rule="evenodd"><path d="M7.467 6.031c-.144 1.46-.29 2.92-.656 4.4-.73-.71-1.446-1.364-2.304-1.832-.127-.069-.268-.31-.436-.083-.145.199-.064.372.116.538.799.732 1.461 1.578 2.066 2.473.083.122.19.213.12.413-.65 1.841-1.544 3.543-2.881 5.12 0-1.056-.004-2.007.001-2.956.014-2.554.007-5.107.196-7.656.023-.318.097-.439.43-.458.97-.055 1.935-.177 2.889-.37.341-.07.5.002.459.411m10.701 5.151c-.024-2.1-.265-4.22.11-6.289.15-.835-.087-1.13-.63-1.586-.455-.385-.837-.484-1.388-.352-3.702.88-7.473 1.346-11.244 1.803-.376.045-.81.124-1.132-.014-.575-.247-1.208-.128-1.837-.541a5.4 5.4 0 0 1 .212 1.224c.183 3.752.03 7.502-.037 11.254-.022 1.14-.084 2.285-.26 3.424-.052.324-.576.592-.202.922.26.229.648.31.98.46l.047.02c.578.24.636.208.643-.39.011-1.025.03-2.05.02-3.075-.007-.481-.026-.796.608-1.016 1.07-.369 1.72-1.308 2.255-2.282.304-.556.564-1.14.863-1.753.633.946 1.194 1.869 1.703 2.973.25-.617.455-1.12.658-1.625.046-.113-.027-.192-.084-.281-.498-.772-.944-1.58-1.526-2.292-.184-.224-.228-.42-.142-.7.443-1.461.704-2.962.944-4.467.036-.223.083-.446.092-.668.011-.296-.383-.252-.463-.494 1.404-.227 2.79-.46 4.193-.577.199-.017.37-.08.352.239-.094 1.672-.263 3.332-.663 5.012-.858-.838-1.703-1.608-2.738-2.126-.143-.072-.287-.31-.475-.098-.213.242-.02.4.152.559.922.853 1.73 1.804 2.47 2.816.106.144.238.255.153.5-.46 1.327-.972 2.624-1.67 3.847-.538.944-1.186 1.813-1.771 2.734 2.631-.887 3.425-3.253 4.345-5.57.953 1.434 1.863 2.783 2.538 4.318.286-.373.388-.764.563-1.117.174-.353.13-.66-.082-1.012-.711-1.193-1.436-2.373-2.334-3.437-.176-.207-.239-.397-.158-.657.499-1.593.716-3.243 1.008-4.88.097-.537.224-1.094-.547-1.305.76-.084 1.52-.163 2.278-.254.57-.07.658-.003.667.59.043 2.85.086 5.697.12 8.545.025 2.015.036 4.03.049 6.045.005.71-.007.717-.734.71a15.247 15.247 0 0 1-2.021-.167c-.107-.015-.257-.114-.318.037a.311.311 0 0 0 .119.371c.112.078.242.13.365.193 1.204.61 2.439 1.163 3.597 1.864.125.074.218.272.398.181.187-.093.143-.303.14-.467-.06-3.717-.142-7.433-.186-11.149" fill="#fff"/><path d="M5.5 3.13c2.042-.469 3.96-.826 5.91-.963.381-.026.762-.045 1.144-.067.345-.02.523.145.522.489-.005 1.63-.016 3.264-.015 4.896 0 .215-.096.243-.278.268a898.39 898.39 0 0 0-6.44.902c-.21.03-.273-.021-.268-.232a36.58 36.58 0 0 0 0-1.615c-.004-.21.06-.279.28-.332 1.725-.414 3.482-.609 5.238-.814.26-.03.588.274.729-.025.081-.173-.153-.474-.191-.726-.084-.56-.423-.582-.869-.476-1.452.347-2.945.453-4.417.688-.742.118-.763.065-.731-.667.005-.12.018-.241.02-.363.014-.422.069-.864-.635-.963m12.69 9.018c-.46-.376-.843-.828-1.224-1.278-.158-.186-.315-.226-.544-.171-2.484.595-5.01.936-7.548 1.186-.973.096-1.949.171-3.048.267.508-.539.88-1.03 1.346-1.4.443-.353.449-.633.032-.996 1.096-.274 2.169-.375 3.232-.531 1.114-.164 2.26-.398 3.245.436.4.338.546.144.572-.264.068-1.073.13-2.147.176-3.22.064-1.438.064-2.88.34-4.303.067-.349-1.338-1.465-1.699-1.35-.941.304-1.902.521-2.873.702-2.012.372-4.022.757-6.06.97-.276.027-.729-.068-.795.056-.145.273.249.46.374.71.098.201.169.501.505.399.428-.13.474.11.505.445.153 1.578.18 3.162.022 4.734-.065.659.018 1.121.595 1.462.354.209.315.432.051.723-1.463 1.615-3.017 3.12-4.92 4.222-.162.093-.392.127-.473.445 1.897.018 3.276-.953 4.6-2.117.086.644.527.557.948.49.611-.099 1.184-.388 1.943-.394-1.736 1.957-3.535 3.62-5.735 4.81-.119.065-.361.086-.3.286.054.177.269.136.415.11.72-.123 1.431-.289 2.07-.655 1.906-1.09 3.472-2.588 4.986-4.149.058-.06.142-.166.124-.219-.222-.64.297-.465.581-.526.339-.07.682-.135 1.027-.161.593-.045 1.17-.248 1.832-.205-.119.2-.197.35-.294.488-1.934 2.737-4.05 5.298-6.884 7.17-.122.081-.355.13-.286.312.07.187.286.138.462.106 1.227-.22 2.295-.77 3.223-1.587 1.967-1.732 3.574-3.783 5.135-5.872.243-.327.152-.59-.173-.9.797-.073 1.501-.163 2.207-.192.48-.02.72.335.594.788-.09.316-.18.63-.28.944-.56 1.768-1.255 3.484-2.23 5.065-.737 1.19-1.242 1.274-2.426.534-.298-.186-.587-.392-.939-.48-.102.243.085.336.189.462.577.694 1.228 1.32 1.733 2.077.493.742.795.76 1.435.145.66-.634 1.12-1.416 1.479-2.243.95-2.186 1.864-4.387 2.791-6.584.109-.254.256-.507-.038-.747" fill="#fff" mask="url(#b)" transform="translate(0 25.229)"/><path d="M61.735 18.273c-.732 0-1.505.082-2.317.244-1.261.162-2.645.326-4.15.488V9.316a44.5 44.5 0 0 1-.06-1.767c0-.284-.143-.509-.427-.67-.285 0-.65-.081-1.098-.245 1.423-.161 2.806-.325 4.148-.487 1.18-.203 2.48-.386 3.904-.548v12.674zm18.24-1.401c-.04-1.014-.304-1.523-.792-1.523-1.139.162-4.231.752-9.272 1.767a65.22 65.22 0 0 0-5.37.73c.082-1.177.143-2.233.183-3.168a76.51 76.51 0 0 1 1.953-.732c3.05-1.136 5.063-1.948 6.038-2.437 1.059-.365 1.852-.71 2.381-1.035.771-.284 1.158-.67 1.158-1.158 0-.162-.162-.325-.488-.487a4.674 4.674 0 0 1-1.037-.793c-.814-.447-1.26-.752-1.341-.913h-.306c-1.139 1.462-3.904 3.33-8.296 5.605.161-3.128.283-5.158.365-6.094 0-.325-.1-.587-.304-.791-.815 0-1.506-.082-2.074-.244 1.707-.161 3.6-.326 5.673-.487 2.155-.162 4.25-.305 6.283-.427.488.122.894.182 1.22.182.082 0 .122-.142.122-.426a14.431 14.431 0 0 1-.305-1.767c-.04-.935-.203-1.401-.488-1.401-.406 0-2.644.326-6.71.975-4.026.609-7.36 1.097-10.005 1.462-2.4.488-5.898.875-10.492 1.157a266.01 266.01 0 0 0-4.21.489h-3.234c0 .326.102.67.305 1.035.123.488.265 1.118.428 1.89.08.526.224.79.428.79.365 0 2.134-.425 5.306-1.278a66.858 66.858 0 0 1 4.637-.67c.04.161.081.303.121.426.122 1.341.224 2.66.305 3.96l-.67-.548a301.98 301.98 0 0 1-6.405 2.985c-2.074.814-3.255 1.22-3.539 1.22-.122.121-.346.183-.671.183l-.122.243c.161.163.427.406.793.732.366.528.692.954.975 1.279.123.162.245.304.367.426h.488c.771 0 2.42-.893 4.94-2.68a32.495 32.495 0 0 0 3.844-3.596c.163 2.56.245 5.16.245 7.8-2.196.163-2.59.158-5.192.483-1.992.285-3.498.427-4.514.427a46.696 46.696 0 0 1-4.636.244l-.123.243c.163.365.387.954.672 1.767.446 1.138.752 1.706.915 1.706.447 0 1.28-.182 2.5-.548 1.016-.325 2.766-.71 5.248-1.158 2.601-.487 3.482-.747 6.655-1.275 6.384-.935 13.4-1.563 21.047-1.889 2.928 0 4.778.082 5.55.243.123 0 .184-.08.184-.243-.285-.69-.53-1.584-.732-2.681zm-31.222 8.671c-.2-.213-.343-.284-.487-.436-.576-.564-1.147-.759-1.317-1.261l-.459.077-.171.71c-.238.989-.264 1.261-2.313 6.117-1.162 2.563-2.345 4.867-3.551 6.916-2.48 4.042-5.059 7.099-7.733 9.172-.039.158.1.275.417.351 2.448.086 4.885-1.665 7.62-4.886 4.107-4.84 7.642-12.992 7.825-13.289.54-.88 1.125-1.694 1.278-2.325.028-.12.022-.182-.017-.192-.39-.472-.558-.46-1.092-.954m66.097-.453a8.6 8.6 0 0 1-.942-.688c-.166-.138-.339-.197-.483-.282-.263-.184-.625-.354-.89-.354-.128 0-.196.425-.196.439 0 .557-.013 1.72-1.172 4.395-.728 1.676-1.342 2.303-2.228 3.212-1.88 1.928-3.24 2.116-5.693 3.554 0 .294.178.44.54.44 2.743-.143 4.764-.383 6.285-1.591 1.744-1.403 2.6-2.411 3.94-5.418 1.146-1.993 1.419-2.615 1.419-2.975 0-.262-.203-.495-.58-.732m20.161 8.824a80.551 80.551 0 0 1-1.03-4.754c-.13-.129-.246-.195-.344-.195a91.046 91.046 0 0 1-.294 4.95c-.066 1.012-.245 1.795-.539 2.351-.196.262-.638.458-1.324.588-.72.23-2.061.343-4.024.343-3.86-.13-5.838-1.355-5.936-3.675.228-3.299.637-6.371 1.227-9.213-.1-.13-.18-.196-.247-.196a15.24 15.24 0 0 0-2.085-.57c-.365-.042-.384-.151-.649-.151a.361.361 0 0 0-.328.474c.057.477.071.817.071 1.423-.295 4.967-.442 7.97-.442 9.018 0 3.495 3.533 5.242 10.597 5.242 4.25 0 6.377-.44 6.377-1.322-.097-.816-.44-2.254-1.03-4.313m-9.402-12.22c2.029-.13 3.974-.081 5.838-.246.393.165.736.246 1.03.246.098 0 .147-.147.147-.441-.13-.36-.228-.997-.293-1.52-.034-.913-.18-1.371-.442-1.371-.36 0-2.42.245-6.182.735-2.65.293-5.488.461-7.482.591.066-2.743.145-5.156.242-7.41 1.34-.099 3.446-.254 5.278-.385a34.695 34.695 0 0 1 3.582-.195c.391 0 .751.178 1.029.126.152-.028.13-.19.1-.322-.132-.425-.23-.9-.296-1.422-.033-.751-.164-1.208-.392-1.372-.23 0-1.521.278-3.876.833-1.865.262-3.982.462-5.324.69.067-1.796.115-3.104.148-3.92l.245-2.352c.163-.36.262-.882.295-1.569a1.26 1.26 0 0 0-.343-.392c-.165 0-.426-.064-.786-.196-1.34-.227-2.19-.408-2.55-.539l-.147.197c.227.914.408 2.596.539 5.047 0 1.437-.017 2.81-.05 4.116-1.177.131-1.264.335-2.966.5-.883.13-1.662.203-2.38.333h-.05c.36-.816.638-1.47.834-1.96.327-.816.572-1.355.736-1.617.294-.36.441-.605.441-.735 0-.262-.245-.392-.735-.392a13.93 13.93 0 0 1-1.472-.832c-.785-.36-1.243-.605-1.373-.736-.067 0-.148.066-.246.196.098.229.147.474.147.735 0 1.698-.508 3.92-1.521 6.664-.262 1.177-1.406 3.202-3.435 6.077 0 .13.131.195.393.195h.59c.653-.26 1.912-1.697 3.777-4.311.196-.392.392-.767.59-1.127.064.36.162.54.293.54.197 0 1.2-.18 3.032-.669 1.67-.261 1.874-.535 3.345-.83v7.319c-2.19.26-3.898.578-8.05.805-1.374.131-2.2.16-3.444.234-1.731.103-2.716.067-2.943.196 0 .164.065.44.196.833.097.263.227.703.391 1.323.066.556.18.833.344.833.36 0 1.519-.277 4.43-.833 1.831-.261 3.11-.368 3.977-.484.866-.114 1.706-.175 2.353-.251 1.242-.13 2.056-.26 3.203-.392.915-.13 7.238-.543 9.233-.543M95.465 6.787c.97-1.648 1.357-2.587 1.443-3.626l.443-.214c.41.212.602.383 1.42.54.603.114 1.076.202 1.422.263.402.078.647.208.737.392.16.332.065.65-.287.957-.817 1.03-1.845 2.094-3.084 3.194-1.129 1.046-2.505 2.142-4.128 3.292a4.467 4.467 0 0 1-.79-.365c.688-.924 1.63-2.4 2.824-4.433" fill="#fff"/><path d="M115.43 40.104c-2.183-.433-7.206-1.29-7.938-1.452-4.637-.935-7.54-1.507-9.573-1.872.405-.324 1.662-2.15 2.313-3.004.772-.933 1.159-1.745 1.159-2.436 0-.61-.528-1.24-1.587-1.89a73.867 73.867 0 0 1-2.562-1.949c-1.098-.69-1.646-1.197-1.646-1.523 0-.448.345-1.177 1.037-2.195.204-.423.784-1.599.784-1.599 1.427-2.89 2.777-4.508 3.418-4.976.198.003.3-.11.304-.34.002-.132-.483-.62-1.458-1.464-.776-.771-1.262-1.225-1.458-1.362l-.297-.005a8.015 8.015 0 0 0-.361.784c-3.642.556-1.927.288-5.313.71-2.133.264-1.184.142-3.165.133-.265-.005-.398.126-.404.388.19.433.397.85.62 1.248.248.797.424 1.175.521 1.197.269.064.79-.266 3.807-.719 2.101-.315 2.5-.338 3.083-.335-.617 1.94-1.536 3.103-2.308 4.805 0 0-.656 1.518-1.223 2.217-1.181.65-1.299 1.438-1.299 1.886 0 .528.406.954 1.22 1.279.771.327 1.19.663 2.003 1.272 1.017.853 2.259 1.682 2.868 3.144 0 .538-.735 1.553-1.633 2.577-.186.213-.998 1.123-1.273 1.364-.442.39-.936.744-1.214.908-1.626.936-2.645 1.896-4.11 2.058-.326.204-.487.469-.487.793.687.698.954.98 1.685 2 .532 1.045.89 1.609 1.215 1.609.284 0 .752-.385 1.404-1.157 1.951-2.477 2.5-3.058 3.193-3.058 1.057 0 6.75 1.076 17.082 3.228 3.782.815 5.23 1.1 8.83 2.454 2.765 1.097 4.596 1.645 5.49 1.645a27.622 27.622 0 0 0 2.44-.67c.773-.162 1.872-.487 3.295-.975 2.888-1.014 4.331-1.583 4.331-1.705.245-.163.367-.406.367-.732-5.07-.198-8.63-.019-15.01-.849-3.173-.412-5.302-.924-8.15-1.432" fill="#fff"/><path d="M1.477 2.97h.537V1.685L3.057.06h-.473l-.627.977a1.145 1.145 0 0 0-.065.113c-.02.04-.119.18-.137.227-.023-.049-.118-.187-.14-.229-.021-.041-.04-.073-.054-.099L.951.061H.452l1.024 1.63v1.28z" fill="#fff" mask="url(#d)" transform="translate(25.32 .455)"/><path d="M26.976 9.06a2.952 2.952 0 0 0 .103-.35c.018.072.037.136.054.195.02.058.036.109.053.154l.293.703h-.795l.292-.703zm-.464 1.12h1.13l.323.793h.488L27.076 7.77l-1.381 3.203h.487l.33-.794zm.621 28.324c.02.058.036.109.053.154l.292.703h-.794l.292-.703a2.574 2.574 0 0 0 .103-.349l.054.195zm-1.438 2.068h.486l.332-.794h1.129l.323.794h.489l-1.378-3.204-1.38 3.204zm.575-24.325l2.015 2.093v-3.023h-.407v2.016l-2.014-2.13v3.024h.405zm1.609 30.684l-2.015-2.13v3.023h.406v-1.979l2.015 2.093v-3.023h-.406zm-.524-22.835l.954-1.38h-.544l-.498.717c-.036.055-.07.104-.098.153-.029.044-.055.09-.08.13l-.032-.058a3.975 3.975 0 0 0-.141-.23l-.47-.712h-.557l.936 1.387-1.058 1.522h.561l.571-.83a3.68 3.68 0 0 0 .178-.289c.05.088.105.181.165.281l.008.014.547.824h.586l-1.028-1.53zm-1.499 5.981v1.81c0 .394.1.69.296.884.198.195.522.293.922.293s.721-.098.92-.294c.2-.194.3-.49.3-.883v-1.81h-.474v1.767c0 .262-.06.46-.182.59-.122.131-.324.198-.564.198-.241 0-.447-.067-.568-.199-.122-.13-.182-.327-.182-.59v-1.766h-.468z" fill="#fff"/></g></svg><svg width="232" height="54" viewBox="-5 -5 232 54" y="116"><title>Page 1</title><g fill="none" fill-rule="evenodd"><path d="M16.79 9.857c-.023-1.94-.246-3.9.1-5.812.14-.772-.08-1.043-.58-1.466-.421-.356-.774-.447-1.284-.326-3.42.815-6.905 1.245-10.39 1.668-.348.041-.75.114-1.046-.013-.533-.229-1.117-.119-1.698-.501.128.468.18.796.196 1.132.17 3.466.028 6.932-.035 10.399-.02 1.054-.077 2.112-.24 3.165-.048.298-.532.546-.186.852.24.212.599.286.906.425l.043.02c.533.221.588.19.593-.362.011-.948.028-1.895.019-2.842-.006-.445-.023-.735.562-.938.99-.341 1.59-1.21 2.084-2.11.281-.514.52-1.052.798-1.62.585.875 1.102 1.727 1.574 2.747l.608-1.5c.042-.105-.025-.178-.079-.261-.46-.713-.871-1.458-1.41-2.117-.17-.207-.21-.387-.13-.648.409-1.35.65-2.736.872-4.127.033-.206.077-.412.084-.618.011-.273-.353-.232-.428-.457 1.298-.21 2.58-.423 3.876-.533.184-.016.342-.073.325.22-.088 1.547-.243 3.08-.612 4.633-.793-.774-1.575-1.486-2.532-1.964-.13-.067-.264-.288-.438-.09-.196.223-.019.368.14.515.852.789 1.6 1.668 2.282 2.603.098.133.221.236.143.463-.426 1.225-.898 2.424-1.544 3.554-.498.872-1.096 1.676-1.637 2.527 2.432-.82 3.165-3.007 4.016-5.149.88 1.326 1.722 2.573 2.345 3.992.265-.346.36-.706.52-1.033.162-.326.12-.61-.075-.935-.658-1.102-1.328-2.194-2.158-3.176-.161-.191-.22-.367-.145-.607.46-1.472.66-2.997.932-4.509.088-.498.207-1.012-.506-1.208.703-.076 1.404-.15 2.105-.234.526-.064.608-.003.617.546.039 2.633.08 5.264.11 7.895.024 1.862.034 3.725.045 5.588.005.656-.007.662-.677.657a14.22 14.22 0 0 1-1.869-.156c-.099-.014-.237-.105-.294.034a.288.288 0 0 0 .11.343c.104.072.225.12.338.179 1.113.564 2.254 1.074 3.324 1.722.116.069.202.252.367.168.174-.086.133-.28.131-.433-.057-3.434-.132-6.868-.172-10.302M6.9 5.097c-.132 1.35-.267 2.697-.606 4.066-.675-.656-1.336-1.261-2.129-1.693-.117-.064-.247-.287-.403-.077-.134.183-.059.344.108.498.737.676 1.35 1.458 1.909 2.285.077.113.175.197.11.382-.6 1.7-1.426 3.273-2.662 4.731 0-.976-.004-1.855.001-2.732.012-2.36.007-4.72.18-7.075.022-.294.09-.405.399-.423a18.87 18.87 0 0 0 2.67-.342c.315-.065.46.002.424.38" fill="#333"/><path d="M16.808 11.353c-.425-.347-.779-.765-1.13-1.18-.146-.174-.29-.21-.502-.16-2.297.55-4.63.866-6.977 1.097-.899.088-1.8.158-2.815.247.468-.498.812-.952 1.243-1.295.409-.325.415-.584.03-.92 1.012-.253 2.004-.346 2.986-.49 1.03-.152 2.088-.369 2.999.403.368.312.505.132.528-.244.063-.993.12-1.985.164-2.977.059-1.329.059-2.661.314-3.976.061-.322-1.237-1.353-1.57-1.247-.87.28-1.758.482-2.655.649-1.86.343-3.717.699-5.601.895-.254.025-.674-.061-.734.053-.134.252.23.424.345.656.091.186.156.463.467.368.395-.12.438.103.467.411.14 1.46.166 2.923.02 4.375-.06.609.016 1.037.55 1.352.327.192.29.4.047.668-1.352 1.492-2.788 2.883-4.548 3.9-.149.088-.361.118-.436.413 1.753.017 3.028-.88 4.25-1.956.08.595.488.514.878.451.564-.09 1.093-.357 1.794-.363-1.604 1.808-3.266 3.345-5.299 4.445-.11.06-.334.08-.277.264.05.164.248.126.384.102.665-.113 1.322-.267 1.913-.605 1.76-1.007 3.208-2.392 4.606-3.834.055-.057.132-.154.115-.203-.204-.592.275-.43.537-.486.313-.065.631-.124.95-.15.547-.04 1.08-.228 1.693-.188-.11.184-.182.323-.273.451-1.787 2.53-3.742 4.895-6.361 6.626-.112.075-.328.12-.265.288.066.173.265.128.427.097 1.135-.202 2.121-.711 2.979-1.465 1.817-1.602 3.302-3.496 4.745-5.427.225-.302.14-.546-.16-.831.738-.068 1.387-.151 2.04-.179.443-.017.666.31.55.728a28.68 28.68 0 0 1-.26.874c-.518 1.634-1.16 3.22-2.061 4.68-.681 1.1-1.148 1.178-2.241.494-.276-.173-.543-.362-.869-.444-.093.225.079.31.175.427.533.64 1.135 1.22 1.601 1.92.457.684.735.702 1.327.134.61-.587 1.036-1.309 1.366-2.073.878-2.021 1.724-4.055 2.58-6.085.1-.234.237-.469-.036-.69M5.082 3.02c1.887-.433 3.66-.763 5.463-.89.351-.023.704-.041 1.056-.062.319-.019.484.135.482.452-.003 1.507-.014 3.016-.013 4.525 0 .198-.09.224-.256.248-1.986.27-3.97.549-5.953.833-.193.027-.25-.02-.246-.214.01-.496.01-.995 0-1.493-.004-.193.055-.257.258-.307 1.594-.383 3.217-.562 4.84-.752.24-.027.543.254.674-.023.075-.16-.14-.439-.177-.67-.077-.518-.39-.539-.802-.44-1.343.32-2.722.418-4.083.634-.685.11-.705.061-.675-.615.004-.112.016-.223.02-.337.012-.389.062-.798-.588-.889" fill="#333" mask="url(#b)" transform="translate(0 22.711)"/><path d="M73.907 15.115c-.038-.937-.282-1.407-.733-1.407-1.053.15-3.91.694-8.568 1.632a60.37 60.37 0 0 0-4.962.676c.075-1.089.131-2.064.168-2.929.376-.15.978-.375 1.805-.675 2.819-1.05 4.679-1.801 5.58-2.253.978-.337 1.711-.655 2.2-.956.713-.263 1.07-.62 1.07-1.07 0-.15-.15-.3-.45-.45a4.35 4.35 0 0 1-.96-.733c-.751-.414-1.163-.695-1.238-.844h-.283c-1.053 1.35-3.608 3.078-7.666 5.18.148-2.891.261-4.767.337-5.632 0-.3-.094-.543-.281-.731-.753 0-1.392-.076-1.917-.226 1.578-.148 3.327-.3 5.243-.45a385.25 385.25 0 0 1 5.806-.394c.45.113.826.168 1.128.168.075 0 .112-.131.112-.393a13.485 13.485 0 0 1-.282-1.634C69.98 1.13 69.83.7 69.566.7c-.376 0-2.444.301-6.202.9a748.66 748.66 0 0 1-9.245 1.352c-2.218.45-5.45.808-9.696 1.069-1.39.15-2.687.302-3.89.452h-2.989c0 .301.094.62.282.956.113.451.245 1.034.395 1.747.075.486.207.73.396.73.337 0 1.972-.393 4.903-1.181a61.388 61.388 0 0 1 4.285-.62c.037.15.075.28.112.394.113 1.24.207 2.46.282 3.66l-.62-.506a282.875 282.875 0 0 1-5.918 2.759c-1.917.751-3.008 1.126-3.27 1.126-.113.112-.32.17-.62.17l-.113.224c.148.15.394.375.732.677.339.487.64.881.901 1.181.114.15.227.281.34.394h.45c.713 0 2.237-.825 4.567-2.476a29.96 29.96 0 0 0 3.55-3.324c.152 2.366.227 4.768.227 7.209-2.029.15-2.393.146-4.798.446-1.84.263-3.232.394-4.171.394-1.504.15-2.931.226-4.284.226l-.114.224c.15.338.358.882.621 1.633.412 1.052.695 1.577.846 1.577.413 0 1.183-.168 2.31-.506.939-.3 2.556-.657 4.85-1.07 2.403-.45 3.217-.69 6.15-1.179 5.9-.864 12.382-1.444 19.45-1.745 2.705 0 4.415.075 5.13.224.112 0 .168-.074.168-.224-.263-.638-.489-1.464-.676-2.478zM57.05 16.41c-.676 0-1.39.075-2.141.225-1.165.15-2.444.301-3.834.451V8.132a40.183 40.183 0 0 1-.057-1.633c0-.262-.132-.47-.394-.619-.264 0-.602-.075-1.015-.226 1.315-.149 2.593-.3 3.833-.45a64.99 64.99 0 0 1 3.608-.507V16.41zm-11.997 6.718c-.184-.197-.318-.262-.45-.404-.532-.52-1.06-.7-1.217-1.165l-.424.072-.158.657c-.22.912-.244 1.165-2.137 5.652-1.074 2.368-2.167 4.498-3.282 6.391-2.292 3.736-4.675 6.56-7.146 8.475-.036.146.092.255.385.326 2.263.079 4.515-1.54 7.042-4.517 3.795-4.472 7.062-12.006 7.231-12.28.498-.813 1.04-1.565 1.181-2.149.026-.11.02-.167-.016-.176-.36-.436-.515-.425-1.009-.882m61.082-.418a8.114 8.114 0 0 1-.872-.636c-.153-.128-.312-.183-.445-.261-.244-.17-.579-.326-.824-.326-.117 0-.18.391-.18.404 0 .515-.012 1.59-1.084 4.062-.672 1.55-1.24 2.129-2.059 2.968-1.737 1.782-2.994 1.956-5.26 3.284 0 .272.164.408.498.408 2.535-.133 4.404-.355 5.808-1.471 1.612-1.297 2.403-2.228 3.642-5.007 1.06-1.841 1.31-2.416 1.31-2.75 0-.24-.186-.457-.534-.676m18.63 8.155c-.393-1.6-.71-3.063-.952-4.393-.12-.12-.227-.181-.317-.181a84.636 84.636 0 0 1-.271 4.574c-.062.936-.228 1.66-.5 2.174-.18.242-.589.422-1.223.542-.666.213-1.905.318-3.719.318-3.567-.121-5.395-1.253-5.485-3.396.21-3.049.589-5.888 1.134-8.515-.092-.12-.167-.18-.228-.18a14.01 14.01 0 0 0-1.927-.528c-.338-.038-.355-.138-.6-.138a.334.334 0 0 0-.303.437c.053.44.066.756.066 1.316-.273 4.59-.409 7.366-.409 8.332 0 3.23 3.265 4.845 9.793 4.845 3.927 0 5.893-.407 5.893-1.222-.09-.753-.407-2.083-.952-3.985m-8.689-11.294c1.876-.12 3.673-.074 5.396-.226.363.152.68.227.951.227.092 0 .136-.135.136-.408-.12-.333-.21-.92-.27-1.404-.032-.844-.167-1.267-.41-1.267-.332 0-2.236.227-5.712.679-2.448.271-5.07.427-6.914.547.06-2.536.134-4.765.224-6.848 1.239-.091 3.184-.235 4.877-.356 1.148-.119 2.25-.18 3.31-.18.361 0 .694.165.951.116.14-.025.12-.175.092-.297a7.807 7.807 0 0 1-.273-1.315c-.03-.694-.152-1.116-.362-1.268-.213 0-1.406.257-3.582.77-1.724.243-3.68.428-4.92.638.062-1.66.106-2.869.137-3.623l.226-2.173c.152-.332.242-.815.273-1.45a1.17 1.17 0 0 0-.317-.362c-.153 0-.394-.06-.727-.18-1.239-.212-2.024-.378-2.357-.499l-.135.181c.21.845.377 2.4.498 4.664 0 1.33-.016 2.597-.046 3.805-1.088.12-1.168.308-2.741.46-.816.121-1.536.188-2.2.309h-.046c.333-.754.59-1.359.771-1.812.302-.753.529-1.252.68-1.494.272-.332.408-.558.408-.678 0-.242-.227-.362-.68-.362a12.894 12.894 0 0 1-1.36-.77c-.725-.333-1.148-.56-1.269-.68-.061 0-.136.062-.227.182.09.21.136.438.136.678 0 1.57-.47 3.622-1.406 6.16-.242 1.086-1.299 2.957-3.174 5.614 0 .121.121.181.363.181h.545c.604-.241 1.767-1.569 3.49-3.985.182-.362.363-.708.545-1.041.06.333.15.499.272.499.182 0 1.11-.165 2.803-.618 1.542-.241 1.73-.495 3.09-.766v6.762c-2.025.241-3.602.535-7.44.745-1.269.12-2.032.147-3.182.216-1.6.095-2.51.061-2.72.18 0 .152.062.408.182.771.09.242.21.649.361 1.222.061.515.167.77.318.77.333 0 1.404-.255 4.094-.77 1.692-.241 2.875-.34 3.675-.446.8-.106 1.576-.163 2.174-.233 1.148-.12 1.9-.24 2.96-.363.846-.12 6.689-.501 8.532-.501M88.22 5.796c.896-1.523 1.254-2.391 1.334-3.351l.41-.199c.378.197.556.354 1.311.5.558.105.995.187 1.315.243.371.072.597.192.68.362.148.307.06.6-.265.885-.755.95-1.705 1.935-2.85 2.951-1.043.966-2.314 1.98-3.814 3.042a4.104 4.104 0 0 1-.73-.337c.635-.854 1.506-2.218 2.61-4.096" fill="#333"/><path d="M106.67 36.584c-2.017-.4-6.66-1.191-7.335-1.342-4.286-.864-6.968-1.392-8.847-1.729.374-.3 1.536-1.988 2.137-2.777.714-.862 1.071-1.613 1.071-2.251 0-.563-.488-1.145-1.465-1.746a68.138 68.138 0 0 1-2.368-1.802c-1.015-.637-1.522-1.106-1.522-1.407 0-.413.319-1.088.958-2.029.19-.39.725-1.476.725-1.476 1.32-2.671 2.566-4.166 3.159-4.6.182.004.277-.101.28-.315.002-.12-.446-.57-1.347-1.35-.717-.714-1.166-1.134-1.347-1.26a18.37 18.37 0 0 0-.275-.005 7.537 7.537 0 0 0-.333.725c-3.366.513-1.781.266-4.91.656-1.971.244-1.094.132-2.925.123-.244-.004-.368.116-.372.358.174.4.366.785.572 1.153.23.737.392 1.086.482 1.107.248.059.73-.246 3.517-.665 1.942-.291 2.31-.312 2.85-.31-.57 1.793-1.42 2.868-2.134 4.44 0 0-.606 1.404-1.13 2.05-1.091.6-1.2 1.329-1.2 1.743 0 .487.375.882 1.127 1.181.713.303 1.1.613 1.852 1.176.939.788 2.087 1.554 2.65 2.905 0 .497-.68 1.435-1.509 2.382-.171.197-.923 1.038-1.177 1.26-.408.36-.864.688-1.122.84-1.502.864-2.444 1.751-3.798 1.902-.301.188-.45.433-.45.732.635.646.883.906 1.557 1.848.492.966.823 1.487 1.124 1.487.261 0 .694-.356 1.296-1.07 1.803-2.288 2.312-2.825 2.951-2.825.977 0 6.239.994 15.786 2.983 3.495.753 4.833 1.016 8.16 2.268 2.555 1.013 4.247 1.52 5.074 1.52a25.364 25.364 0 0 0 2.255-.62c.713-.149 1.729-.45 3.045-.9 2.668-.937 4.001-1.463 4.001-1.576.227-.15.34-.375.34-.676-4.686-.182-7.976-.018-13.873-.785-2.93-.38-4.898-.854-7.53-1.323M24.763 2.689h.496v-1.19l.964-1.498h-.437l-.58.903a1.2 1.2 0 0 0-.06.104c-.019.037-.11.165-.126.209-.021-.045-.109-.173-.13-.21a1.004 1.004 0 0 0-.05-.093L24.277 0h-.459l.946 1.505V2.69zM24.5 8.93h1.045l.298.733h.451l-1.273-2.959-1.275 2.96h.449l.306-.734zm.43-1.035a3.733 3.733 0 0 0 .094-.323c.017.067.035.126.05.181.018.053.034.1.05.142l.27.65h-.735l.27-.65zm-1.185 29.121h.45l.305-.733h1.045l.297.733h.452l-1.272-2.96-1.277 2.96zm1.33-1.91c.017.054.032.1.048.142l.27.65h-.734l.27-.65a2.71 2.71 0 0 0 .096-.323c.016.067.033.127.05.18zm-.799-20.569l1.863 1.935v-2.794h-.376v1.863l-1.861-1.968v2.794h.374zm1.487 28.356l-1.861-1.968v2.794h.374v-1.83l1.863 1.935V41.03h-.376zM25.28 21.79l.881-1.275h-.503l-.46.663c-.033.05-.065.097-.09.141-.027.04-.051.083-.074.12l-.03-.053a3.325 3.325 0 0 0-.131-.213l-.434-.658h-.514l.864 1.282-.977 1.407h.518l.528-.768c.03-.046.061-.092.088-.136a2.47 2.47 0 0 0 .076-.13l.152.26.008.013.505.76h.542l-.95-1.412zm-1.386 5.528v1.673c0 .363.092.637.274.817.183.18.481.27.85.27.371 0 .668-.09.852-.27.184-.181.276-.454.276-.817v-1.673h-.437v1.632c0 .243-.056.426-.168.546-.113.122-.3.183-.522.183-.222 0-.413-.061-.524-.183-.113-.12-.168-.303-.168-.546v-1.632h-.433z" fill="#333"/><g fill="#B0882F"><path d="M205.648 34.103c.883.734 1.402 1.055 2.01 1.206.183.13.085.283.085.283 0 .129-.184.315-.356.785-.126.346-.326.624-.396.823-.085.231-.185.363-.303.399-.213.063-.392-.024-.54-.263-.531-.583-1.063-1.296-1.596-2.137-.51-.771-1.027-1.693-1.552-2.766.083-.153.041-.297.153-.433.481.497 1.405 1.198 2.495 2.103"/><path d="M214.07 26.55c-.078-.203 0-.271.23-.203 1.84 1.367 2.835 2.46 2.989 3.28.073.363.163.635-.165.896-.268.213-.6.499-1.215.745-.585.234-.883-.035-.805-.513 0-.615-.04-1.162-.114-1.64-2.914.958-6.088 1.492-7.121 2.208-.34.236-.555.252-.635-.1 0 0-.57-.85-.692-1.195-.079-.218.094-.29.094-.29.766-.067 1.105-.255 1.335-.598 1.224-2.118 2.267-4.507 3.266-7.583 0 0 .055-.17.24-.117.047.014.174.094.174.094l1.953 1.044.23.103c0 .068.176.254-.284.418l-.52.364c-1.688 2.46-2.624 4.239-4.005 5.81l5.921-.738c-.23-.956-.495-1.504-.876-1.984zm-16.428 5.674l-.5.375-.345-.158.25-12.12c0-2.185-.06-3.696-.212-4.791l.328-.231 2.449 1.059 4.139-.103 1-.854.188-.052 1.882 1.18.115.308s-.26.567-.69.95c-.026.39 0 5.2 0 5.2a41.486 41.486 0 0 0 5.42-8.818c.142-.312.288-.096.288-.096l1.995 1.123c.153 0 .166.205.014.41l-.7.45a59.939 59.939 0 0 1-2.073 2.524l7.08-.567.876-1.015c.059-.22.33-.063.33-.063l2.237 1.425c.151.069.175.328.023.465l-.124.047s-.401.56-.532.75c-.313.453-.316 1.078-.316 1.078l-.087 8.015.115 3.383c-.153 2.666-1.686 4.75-4.599 6.255-.23.136-.383.102-.46-.103.153-1.163-.23-1.948-1.148-2.358-.156-.068-.194-.138-.115-.205h.23c2.45.137 3.736-.936 3.582-3.466l.141-12.115c.002-.157.163-.84.05-.947-.082-.076-.203-.056-.484-.034-1.534.122-7.716.735-7.91.739-.079.002.285-.311.285-.311l.178-.196c-1.608 1.777-2.954 3.085-4.41 4.246v1.025l-.192 4.08c-.078.82-.267 1.475-1.417 2.295l-.428-.216-.037-13.118s.07-.33-.002-.4c-.076-.073-.42.012-.42.012l-4.135.115s-.552.348-.561.578c-.11 2.907-.154 9.016-.154 9.016-.078.889-.16 4.39-1.143 5.234zm2.855-10.517c-.078-.204 0-.308.23-.308l1.61.513c.305 0 .448.25.007 1.03l-.233 5.173c.23 4.239-2.736 9.945-7.36 11.175-.1.026-.54 0-.692 0-.078-.07-.078-.171 0-.308 4.445-2.735 6.724-6.541 6.439-12.346v-4.93zM150 31.001v.001c.027-.003.016-.002 0-.001"/><path d="M162.075 36.026c-.04-.644-.17-1.263-.569-1.288-.526.04-1.576.161-3.112.357 0 0-1.982.287-4.174.475 0 0-3.093.157-4.006.163l-.021-6.836.129-.01.177-.008-.001-.004c.672-.049 1.732-.149 2.381-.195a34.724 34.724 0 0 1 3.582-.196c.391 0 .752.179 1.029.126.153-.027.125-.091.094-.224-.131-.425-.2-.372-.265-.896-.034-.751-.189-1.049-.417-1.213-.23 0-1.521.278-3.876.834-.783.11-1.991.259-2.787.354l-.014-.108c-.066.006-.025.001 0-.001.025-.532-.046-1.252-.033-1.576.066-.62.14-1.454.238-2.403.163-.359.261-.882.294-1.568a1.255 1.255 0 0 0-.343-.393c-.164 0-.298.004-.844-.092-1.341-.227-1.353-.193-1.713-.324l-.147.196c.222.895.328 2.259.458 4.623l.003.093-.001 1.097.119 8.81c-1.272.164-3.938.365-4.23.292.07-1.259.127-6.085.136-6.292l.194-1.86c.129-.284.207-.698.233-1.241a1.001 1.001 0 0 0-.271-.31c-.13 0-.337-.051-.622-.155-1.06-.18-1.564-.328-1.849-.431l-.116.155c.18.723.323 2.054.427 3.993 0 .274.307 5.256.334 6.218l-.091.006c-1.646.128-2.688.293-3.52.24-1.341.048-2.569-.225-3.768-.302l-.113.193c.114.307.267.539.457 1.219.306.955.526 1.437.66 1.445.366.024 1.058-.082 2.076-.317.848-.214 1.73-.376 3.781-.645 1.686-.22 3.033-.31 5.469-.562 0 0 4.406-.5 10.563-.106 2.396.153 3.907.215 4.531.387.1.007.154-.056.162-.189-.197-.58-.367-.68-.624-1.531"/><path d="M163.804 24.69c-4.741-.463-11.523-5.723-14.358-9.414l.026-.18c.018-.013.03-.032.049-.045l.575-.513c.23-.205.23-.341 0-.41L147.222 13c-.369.705-.784 1.295-1.185 2.046-.351.658-.877 1.405-1.286 2.115-.951 1.651-2.754 3.894-3.555 4.756-2.175 2.338-4.104 4.166-7.081 6.052-.078.069-.115.171-.115.308.076.069 1.396.12 1.55.052 3.638-2.097 5.61-3.824 8.422-6.746.63-.654 1.404-1.383 1.953-2.14.541-.745 1.154-1.545 1.657-2.203.502-.658.981-1.161 1.285-1.456 2.527 4.874 7.106 8.543 11.488 11.263.541.337 3.146-1.684 3.334-1.947.182-.255.421-.38.115-.41m29.156 11.145c.02-.807-.084-1.218-.314-1.232-.317-.019-2.145.085-5.484.312-.727.036-3.076.047-4.826.119l.885-19.66c.126-.207.442-.935.395-1.154l-.176-.285L180.5 13l-.09.148.256 4.613-.128 17.345c-1.227.048-2.52.096-3.79.138l-.045-19.724c.126-.207.442-.935.396-1.154l-.178-.285-2.747-.816-.09.148.205 4.466.67 17.42c-1.826.187-3.532.334-4.615.327-1.216.04-1.752.021-2.852.019-1.53-.003-2.284-.339-2.49-.238-.01.145.033.392.126.745.072.236.13.497.24 1.052.028.494.114.743.258.752.316.02.817-.217 3.411-.549 1.626-.131 2.612-.324 3.38-.379.77-.053 1.864-.12 2.438-.152 1.1-.047 1.942-.072 2.958-.125.813-.065 7.215.008 8.972.116 1.793-.004 3.522.338 5.305.43.336.166.634.256.893.271.086.006.137-.12.153-.38-.095-.323-.147-.89-.176-1.353"/><path d="M174.617 23.463l-.566-.463a251.12 251.12 0 0 1-5.399 2.518c-1.749.685-2.744 1.027-2.983 1.027-.103.103-.292.155-.566.155l-.103.205c.136.137.36.342.669.617.308.445.488.584.727.858.104.137.206.257.309.359h.412c.65 0 2.04-.752 4.165-2.259 1.2-.959 2.376-1.75 3.335-2.812.033.521-.031-.698 0-.205m16.477.768a3.83 3.83 0 0 1-.854-.652c-.67-.369-.967-.446-1.034-.579h-.252c-.937 1.205-3.214 2.744-6.832 4.616.033-.639-.132 1.671-.122 1.432.335-.133.872-.334 1.61-.602 2.511-.936 4.168-1.605 4.972-2.007.871-.301 1.525-.585 1.96-.853.635-.234.954-.552.954-.954 0-.133-.134-.267-.402-.401"/></g></g></svg></svg>